<svg width="470" height="411" viewBox="0 0 470 411" fill="none" xmlns="http://www.w3.org/2000/svg">
<path d="M264.336 221.85C264.277 222.026 264.218 222.21 264.16 222.385C264.062 222.689 263.954 222.985 263.856 223.28C263.797 223.443 263.743 223.614 263.685 223.777C263.567 224.093 263.455 224.397 263.337 224.706C263.288 224.834 263.239 224.975 263.19 225.095C263.024 225.523 262.852 225.939 262.681 226.341C262.657 226.41 262.632 226.465 262.603 226.53C262.461 226.868 262.314 227.202 262.167 227.523C262.108 227.66 262.04 227.792 261.981 227.921C261.868 228.161 261.751 228.405 261.638 228.636C261.57 228.781 261.496 228.901 261.423 229.055C261.315 229.265 261.212 229.475 261.114 229.672C261.036 229.813 260.958 229.942 260.879 230.092C260.806 230.237 260.708 230.4 260.62 230.55C261.261 232.956 262.911 234.681 265.07 235.182C266.842 235.597 268.771 235.165 270.505 233.97C272.287 232.737 273.638 230.845 274.304 228.649C274.945 226.559 274.764 224.83 273.78 223.503C272.918 222.347 271.396 221.486 269.388 221.015C267.547 220.587 265.947 220.609 264.6 221.084C264.502 221.341 264.419 221.593 264.336 221.85Z" fill="#FF9300"/>
<path d="M299.992 147.365C301.51 141.555 302.21 135.673 302.097 129.713C301.985 123.758 301.064 117.897 299.331 112.134C299.238 111.818 299.121 111.509 298.979 111.205C298.837 110.901 298.675 110.606 298.494 110.319C298.313 110.037 298.107 109.763 297.887 109.497C297.667 109.236 297.427 108.983 297.167 108.748C296.908 108.513 296.634 108.29 296.345 108.084C296.051 107.879 295.747 107.691 295.429 107.515C295.111 107.344 294.783 107.19 294.445 107.053C294.102 106.92 293.755 106.8 293.397 106.706C293.045 106.607 292.683 106.53 292.311 106.475C291.943 106.415 291.576 106.38 291.199 106.363C290.827 106.346 290.455 106.351 290.083 106.376C289.711 106.402 289.339 106.449 288.977 106.513C288.609 106.582 288.247 106.667 287.895 106.774C287.542 106.881 287.199 107.006 286.862 107.151C286.529 107.292 286.206 107.455 285.892 107.639C285.579 107.819 285.285 108.016 285.001 108.226C275.758 115.196 265.33 121.318 263.415 122.427C272.145 125.051 280.032 128.973 287.082 134.191C292.178 137.985 296.487 142.373 299.992 147.365Z" fill="#FF9300"/>
<path d="M211.98 229.792C211.872 229.603 211.774 229.402 211.671 229.201C211.593 229.047 211.51 228.897 211.427 228.734C211.319 228.516 211.211 228.285 211.103 228.058C211.03 227.904 210.957 227.763 210.883 227.604C210.751 227.309 210.614 227 210.482 226.692L210.354 226.401C210.183 225.99 210.012 225.566 209.84 225.134L209.659 224.65C209.551 224.367 209.444 224.085 209.351 223.79C209.282 223.601 209.214 223.4 209.15 223.203C209.052 222.938 208.954 222.668 208.861 222.377C208.793 222.167 208.724 221.953 208.656 221.735C208.587 221.52 208.499 221.272 208.425 221.032C207.72 220.81 206.991 220.698 206.237 220.707C205.405 220.716 204.587 220.818 203.784 221.011C201.772 221.482 200.254 222.342 199.393 223.503C198.404 224.826 198.223 226.559 198.859 228.649C200.225 233.123 204.367 236.051 208.097 235.182C210.212 234.69 211.848 233.016 212.513 230.691C212.43 230.55 212.347 230.4 212.264 230.254L211.98 229.792Z" fill="#FF9300"/>
<path d="M236.67 217.282C236.562 217.308 236.449 217.308 236.341 217.282L207.079 210.393C207.706 213.793 208.523 217.149 209.532 220.476C210.785 224.534 212.185 227.861 213.703 230.348C215.799 233.791 218.036 235.533 220.357 235.533H220.43C222.08 235.516 223.363 235.015 224.342 234.009C227.318 230.965 226.3 224.423 226.29 224.355C226.251 224.201 226.285 224.055 226.388 223.922C226.496 223.794 226.638 223.717 226.819 223.695C227 223.67 227.162 223.708 227.304 223.811C227.446 223.909 227.524 224.042 227.539 224.201C227.578 224.44 228.342 229.329 226.569 232.909H246.446C244.679 229.329 245.443 224.44 245.482 224.201C245.506 224.046 245.59 223.927 245.727 223.832C245.869 223.742 246.025 223.708 246.197 223.73C246.368 223.751 246.51 223.819 246.613 223.944C246.721 224.068 246.76 224.205 246.735 224.355C246.735 224.423 245.702 230.965 248.674 234.009C249.658 235.015 250.936 235.516 252.586 235.533H252.65C255 235.533 257.252 233.743 259.401 230.207C260.659 228.011 261.692 225.737 262.5 223.383C262.803 222.479 263.141 221.533 263.445 220.54C264.801 216.173 265.619 212.102 265.932 210.402L236.67 217.282Z" fill="#FF9300"/>
<path d="M262.098 210.149C253.976 210.809 244.885 211.01 234.789 211.01C226.653 211.01 219.172 210.882 212.318 210.471L236.493 216.16L262.098 210.149Z" fill="#DB0E0E"/>
<path d="M187.334 206.909C185.758 207.153 172.774 209.55 173.484 222.308C177.435 220.001 193.243 211.682 207.358 217.423C206.413 213.84 205.87 210.903 205.713 210.004C198.883 209.375 192.759 208.398 187.334 206.909Z" fill="#FF0000"/>
<path d="M182.517 134.192C189.552 128.981 197.429 125.064 206.139 122.439C204.298 121.361 193.821 115.23 184.539 108.226C184.255 108.016 183.956 107.819 183.643 107.635C183.334 107.455 183.011 107.292 182.673 107.147C182.34 107.006 181.993 106.877 181.64 106.774C181.288 106.667 180.926 106.577 180.563 106.513C180.196 106.445 179.829 106.402 179.452 106.376C179.08 106.351 178.708 106.346 178.336 106.359C177.964 106.376 177.591 106.41 177.224 106.47C176.857 106.526 176.495 106.603 176.137 106.702C175.78 106.796 175.432 106.916 175.09 107.048C174.752 107.185 174.424 107.34 174.106 107.511C173.787 107.682 173.484 107.875 173.19 108.08C172.901 108.286 172.627 108.508 172.368 108.744C172.108 108.979 171.868 109.228 171.648 109.493C171.423 109.754 171.222 110.028 171.041 110.315C170.855 110.602 170.693 110.897 170.556 111.201C170.414 111.505 170.297 111.813 170.204 112.13C168.466 117.906 167.545 123.775 167.438 129.748C167.325 135.716 168.03 141.611 169.553 147.429C173.073 142.412 177.391 137.998 182.517 134.192Z" fill="#FF9300"/>
<path d="M299.821 149.214C299.738 149.137 299.674 149.047 299.645 148.945C291.003 135.857 275.807 126.083 256.894 121.78C253.408 120.992 249.874 120.397 246.3 120.003C244.371 119.789 242.417 119.627 240.439 119.524C238.579 119.421 236.699 119.374 234.799 119.374C233.13 119.374 231.475 119.408 229.84 119.485C227.93 119.571 226.046 119.712 224.19 119.909C220.616 120.269 217.081 120.83 213.591 121.583C183.124 128.198 162.072 148.928 162.072 174.893C162.072 192.643 171.976 201.454 187.486 205.791C187.55 205.8 187.613 205.817 187.672 205.838C200.416 209.366 216.91 209.901 234.799 209.901C254.025 209.901 271.655 209.285 284.737 204.995L284.8 204.978C298.754 200.384 307.522 191.599 307.522 174.893C307.542 170.394 306.9 165.963 305.598 161.609C304.291 157.255 302.367 153.123 299.821 149.214ZM300.036 185.935C290.744 191.92 270.696 197.969 256.414 188.799C250.809 185.198 244.596 183.43 240.376 182.595C236.875 181.906 233.37 181.906 229.869 182.595C225.659 183.43 219.466 185.181 213.845 188.799C208.567 192.19 202.492 193.5 196.475 193.5C186.208 193.5 176.079 189.698 170.228 185.935C168.412 184.762 167.384 183.272 167.266 181.632C167.105 179.299 168.657 176.756 171.868 174.101C178.864 168.309 189.748 160.804 203.76 162.285C212.357 163.214 220.645 165.153 228.631 168.095C230.711 168.857 232.88 169.238 235.137 169.238C237.389 169.238 239.558 168.857 241.639 168.095C249.624 165.153 257.917 163.218 266.514 162.285C280.521 160.804 291.405 168.309 298.377 174.08C301.598 176.747 303.155 179.286 302.979 181.611C302.871 183.272 301.853 184.762 300.036 185.935Z" fill="#DB7700"/>
<path d="M299.821 149.214C299.738 149.137 299.674 149.047 299.645 148.945C291.003 135.857 275.807 126.083 256.894 121.78C253.408 120.992 249.874 120.397 246.3 120.003C244.371 119.789 242.417 119.627 240.439 119.524C238.579 119.421 236.699 119.374 234.799 119.374C233.13 119.374 231.475 119.408 229.84 119.485C227.93 119.571 226.046 119.712 224.19 119.909C220.616 120.269 217.081 120.83 213.591 121.583C186.115 127.551 166.297 144.997 162.669 167.414C162.503 169.028 162.414 170.672 162.409 172.346C162.409 190.096 172.319 198.907 187.829 203.244C187.892 203.252 187.951 203.265 188.01 203.291C200.759 206.819 217.253 207.354 235.137 207.354C254.368 207.354 271.998 206.737 285.084 202.447L285.138 202.43C297.074 198.5 305.216 191.496 307.321 179.098C307.449 177.753 307.522 176.358 307.522 174.893C307.542 170.394 306.9 165.963 305.598 161.609C304.291 157.255 302.367 153.123 299.821 149.214Z" fill="#FF9300"/>
<path d="M267.332 209.644C267.332 209.67 267.332 209.691 267.332 209.717C267.332 209.76 266.769 213.146 265.628 217.458C279.763 211.639 295.64 219.983 299.6 222.3C300.291 209.529 286.783 206.416 285.04 206.069C279.846 207.756 273.946 208.895 267.332 209.644Z" fill="#FF0000"/>
<path d="M297.51 174.885C290.724 169.263 280.14 161.973 266.666 163.381C258.182 164.302 250.001 166.215 242.118 169.114C239.881 169.936 237.551 170.347 235.127 170.347C232.704 170.347 230.373 169.936 228.141 169.114C220.259 166.215 212.073 164.302 203.593 163.381C202.457 163.265 201.322 163.206 200.181 163.201C188.318 163.201 178.948 169.747 172.749 174.885C169.846 177.282 168.387 179.59 168.529 181.551C168.622 182.895 169.45 184.055 170.982 185.044C179.985 190.837 199.378 196.736 213.111 187.913C218.907 184.188 225.277 182.381 229.605 181.521C233.291 180.793 236.983 180.793 240.669 181.521C244.992 182.381 251.362 184.188 257.163 187.913C262.211 191.158 268.032 192.412 273.814 192.412C283.753 192.412 293.598 188.709 299.277 185.044C300.815 184.064 301.627 182.895 301.735 181.551C301.867 179.59 300.408 177.282 297.51 174.885Z" fill="#FF0000"/>
<path d="M240.439 119.537V150.122C240.439 150.426 240.405 150.73 240.336 151.03C240.268 151.329 240.165 151.616 240.033 151.899C239.901 152.181 239.739 152.447 239.543 152.704C239.352 152.956 239.132 153.192 238.887 153.406C238.638 153.62 238.373 153.812 238.079 153.984C237.791 154.155 237.487 154.296 237.164 154.412C236.846 154.532 236.513 154.617 236.17 154.677C235.832 154.737 235.485 154.767 235.137 154.767C234.789 154.767 234.447 154.737 234.104 154.677C233.761 154.617 233.433 154.532 233.11 154.412C232.787 154.296 232.484 154.155 232.195 153.984C231.906 153.812 231.637 153.62 231.392 153.406C231.147 153.192 230.927 152.956 230.731 152.704C230.54 152.447 230.373 152.181 230.241 151.899C230.109 151.616 230.006 151.329 229.943 151.03C229.874 150.73 229.84 150.426 229.84 150.122V119.498C231.475 119.425 233.13 119.387 234.799 119.387C236.699 119.387 238.579 119.434 240.439 119.537Z" fill="#DB7700"/>
<path d="M256.894 121.797V140.78C256.894 141.089 256.86 141.388 256.796 141.688C256.728 141.988 256.625 142.279 256.493 142.561C256.36 142.84 256.194 143.109 256.003 143.362C255.807 143.615 255.592 143.85 255.342 144.064C255.097 144.282 254.828 144.475 254.539 144.642C254.25 144.813 253.947 144.955 253.624 145.074C253.305 145.19 252.973 145.276 252.63 145.336C252.287 145.396 251.944 145.426 251.597 145.426C251.249 145.426 250.907 145.396 250.564 145.336C250.221 145.276 249.888 145.19 249.57 145.074C249.247 144.955 248.943 144.813 248.654 144.642C248.366 144.475 248.096 144.282 247.852 144.064C247.602 143.85 247.382 143.615 247.191 143.362C247 143.109 246.833 142.84 246.701 142.561C246.569 142.279 246.466 141.988 246.397 141.688C246.334 141.388 246.3 141.089 246.3 140.78V120.016C249.874 120.414 253.408 121.005 256.894 121.797Z" fill="#DB7700"/>
<path d="M224.19 119.922V141.568C224.175 142.176 224.028 142.758 223.749 143.315C223.475 143.871 223.088 144.359 222.594 144.783C222.099 145.207 221.532 145.533 220.89 145.764C220.249 145.991 219.583 146.106 218.888 146.106C218.197 146.106 217.532 145.991 216.89 145.764C216.249 145.533 215.681 145.207 215.187 144.783C214.692 144.359 214.305 143.871 214.026 143.315C213.752 142.758 213.605 142.176 213.591 141.568V121.596C217.081 120.843 220.616 120.282 224.19 119.922Z" fill="#DB7700"/>
<path d="M227.25 225.07C227.118 224.907 227.01 224.727 226.927 224.543C226.848 224.355 226.79 224.162 226.76 223.961C226.731 223.76 226.731 223.563 226.755 223.361C226.78 223.16 226.834 222.967 226.912 222.779C226.99 222.586 227.093 222.411 227.22 222.244C227.348 222.077 227.5 221.923 227.666 221.79C227.837 221.653 228.023 221.538 228.224 221.439C228.425 221.341 228.635 221.268 228.856 221.216C231.083 220.677 233.154 222.561 235.455 222.664C236.895 222.736 238.246 222.128 239.553 221.589C240.86 221.049 242.329 220.561 243.719 220.912C244.14 221.032 244.517 221.221 244.855 221.473C245.188 221.722 245.462 222.021 245.663 222.364C245.869 222.711 245.991 223.075 246.03 223.46C246.069 223.845 246.025 224.226 245.898 224.594C244.85 227.202 246.51 230.211 247.406 232.866C240.346 233.461 233.262 233.431 226.178 233.088C226.824 230.447 227.181 227.771 227.25 225.07Z" fill="white"/>
<path d="M295.243 142.373C297.51 135.001 297.916 125.205 294.254 117.683C293.579 116.287 292.394 114.725 290.666 114.806C289.745 114.845 288.972 115.345 288.247 115.821L272.644 126.126C280.654 129.495 289.726 136.268 295.243 142.373Z" fill="#DB7700"/>
<path d="M175.496 142.373C173.224 135.001 172.823 125.205 176.48 117.683C177.161 116.287 178.341 114.725 180.074 114.806C180.994 114.845 181.763 115.345 182.492 115.821L198.095 126.126C190.086 129.495 181.014 136.268 175.496 142.373Z" fill="#DB7700"/>
<path d="M170.047 148.803C170.375 148.401 193.366 121.296 234.789 121.296C274.808 121.296 297.916 147.027 299.698 149.077C299.669 149.039 299.649 148.996 299.635 148.949C290.994 135.861 275.797 126.091 256.884 121.789C253.398 120.997 249.864 120.406 246.29 120.008C244.366 119.794 242.412 119.635 240.429 119.528C238.569 119.43 236.689 119.378 234.789 119.378C233.12 119.378 231.465 119.417 229.83 119.49C227.921 119.58 226.036 119.721 224.18 119.914C220.606 120.273 217.071 120.834 213.581 121.588C194.35 125.762 178.84 135.587 170.047 148.803Z" fill="#FFB55C"/>
<path d="M240.439 119.537V121.459C238.594 121.343 236.718 121.288 234.799 121.284C233.11 121.284 231.455 121.331 229.84 121.421V119.498C231.475 119.425 233.13 119.387 234.799 119.387C236.699 119.387 238.579 119.434 240.439 119.537Z" fill="#E58720"/>
<path d="M256.894 121.797V124.024C253.413 123.146 249.883 122.474 246.3 122.016V120.016C249.874 120.414 253.408 121.005 256.894 121.797Z" fill="#E58720"/>
<path d="M224.19 119.922V121.9C220.606 122.311 217.076 122.932 213.591 123.767V121.596C217.081 120.843 220.616 120.282 224.19 119.922Z" fill="#E58720"/>
<path d="M213.591 121.596C217.081 120.843 220.616 120.282 224.19 119.922V121.9C220.606 122.311 217.076 122.932 213.591 123.767V121.596Z" fill="#E58720"/>
<path d="M234.799 119.387C236.699 119.387 238.579 119.434 240.439 119.537V121.459C238.594 121.343 236.718 121.288 234.799 121.284C233.11 121.284 231.455 121.331 229.84 121.421V119.498C231.475 119.425 233.13 119.387 234.799 119.387Z" fill="#E58720"/>
<path d="M256.894 121.797V124.024C253.413 123.146 249.883 122.474 246.3 122.016V120.016C249.874 120.414 253.408 121.005 256.894 121.797Z" fill="#E58720"/>
<path d="M251.597 188.854C251.597 189.373 251.499 189.882 251.298 190.387C251.098 190.892 250.804 191.385 250.417 191.86C250.025 192.335 249.546 192.789 248.978 193.217C248.415 193.645 247.768 194.043 247.049 194.407C246.329 194.771 245.541 195.097 244.694 195.383C243.847 195.67 242.951 195.91 242.011 196.111C241.066 196.308 240.097 196.454 239.098 196.556C238.099 196.655 237.086 196.706 236.067 196.706C235.049 196.706 234.04 196.655 233.037 196.556C232.038 196.454 231.069 196.308 230.124 196.111C229.184 195.91 228.288 195.67 227.441 195.383C226.594 195.097 225.806 194.771 225.086 194.407C224.366 194.043 223.72 193.645 223.157 193.217C222.589 192.789 222.109 192.335 221.723 191.86C221.331 191.385 221.037 190.892 220.836 190.387C220.636 189.882 220.538 189.373 220.538 188.854C220.538 188.341 220.636 187.831 220.836 187.326C221.037 186.821 221.331 186.329 221.723 185.853C222.109 185.378 222.589 184.924 223.157 184.496C223.72 184.068 224.366 183.67 225.086 183.306C225.806 182.942 226.594 182.617 227.441 182.33C228.288 182.043 229.184 181.803 230.124 181.602C231.069 181.405 232.038 181.26 233.037 181.157C234.04 181.058 235.049 181.007 236.067 181.007C237.086 181.007 238.099 181.058 239.098 181.157C240.097 181.26 241.066 181.405 242.011 181.602C242.951 181.803 243.847 182.043 244.694 182.33C245.541 182.617 246.329 182.942 247.049 183.306C247.768 183.67 248.415 184.068 248.978 184.496C249.546 184.924 250.025 185.378 250.417 185.853C250.804 186.329 251.098 186.821 251.298 187.326C251.499 187.831 251.597 188.341 251.597 188.854Z" fill="#FFB55C"/>
<path d="M285.04 206.074C279.846 207.756 273.946 208.895 267.332 209.644C267.332 209.67 267.332 209.691 267.332 209.717C267.332 209.76 266.769 213.146 265.628 217.458C267.293 216.777 269.021 216.267 270.818 215.933C271.097 215.462 271.405 215.004 271.738 214.559C272.076 214.114 272.443 213.69 272.835 213.283C273.227 212.872 273.643 212.487 274.088 212.123C274.529 211.755 274.994 211.412 275.479 211.091C275.963 210.77 276.468 210.475 276.992 210.205C277.515 209.931 278.059 209.687 278.612 209.473C279.17 209.255 279.733 209.066 280.316 208.904C280.894 208.741 281.481 208.608 282.078 208.505C282.676 208.403 283.278 208.33 283.885 208.287C284.492 208.244 285.099 208.231 285.706 208.244C286.313 208.261 286.92 208.309 287.522 208.386C288.125 208.458 288.717 208.565 289.309 208.702C289.897 208.835 290.475 208.998 291.043 209.19C291.61 209.383 292.164 209.601 292.702 209.85C293.241 210.094 293.765 210.368 294.269 210.667C294.773 210.963 295.253 211.288 295.718 211.631L295.615 211.502C291.674 207.559 286.117 206.288 285.04 206.074Z" fill="#DB0E0E"/>
<path d="M187.662 206.339C192.862 208.022 198.756 209.156 205.37 209.91C205.37 209.931 207.358 210.415 206.364 210.393C206.315 210.393 206.957 213.412 208.097 217.723C206.389 217.017 203.628 216.524 201.885 216.199C201.606 215.724 201.297 215.266 200.964 214.825C200.626 214.379 200.259 213.955 199.868 213.544C199.476 213.138 199.06 212.752 198.614 212.384C198.174 212.02 197.708 211.674 197.224 211.357C196.739 211.036 196.235 210.74 195.711 210.471C195.187 210.197 194.644 209.953 194.09 209.738C193.532 209.52 192.969 209.332 192.387 209.169C191.809 209.006 191.221 208.874 190.624 208.771C190.027 208.668 189.425 208.595 188.818 208.553C188.211 208.51 187.603 208.493 186.996 208.51C186.389 208.527 185.782 208.574 185.18 208.651C184.578 208.724 183.985 208.831 183.398 208.964C182.806 209.101 182.228 209.263 181.66 209.456C181.092 209.649 180.539 209.867 180 210.115C179.462 210.359 178.943 210.633 178.438 210.929C177.934 211.228 177.449 211.549 176.984 211.896L177.092 211.768C181.028 207.82 186.59 206.553 187.662 206.339Z" fill="#DB0E0E"/>
<path d="M257.501 212.487C259.127 212.847 260.38 214.054 261.016 215.411C261.653 216.768 261.765 218.271 261.751 219.739C261.712 223.563 260.938 227.27 259.42 230.858C261.54 227.685 263.215 224.338 264.444 220.823C265.667 217.303 266.412 213.711 266.676 210.042C266.084 209.452 264.928 209.606 264.086 209.875C261.717 210.625 259.871 211.734 257.501 212.487Z" fill="#DB7700"/>
<path d="M216.322 212.487C214.697 212.847 213.449 214.054 212.807 215.411C212.171 216.768 212.058 218.271 212.078 219.739C212.112 223.563 212.886 227.27 214.403 230.858C212.283 227.685 210.609 224.338 209.385 220.823C208.156 217.303 207.412 213.711 207.148 210.042C207.745 209.452 208.895 209.606 209.742 209.875C212.112 210.625 213.953 211.734 216.322 212.487Z" fill="#DB7700"/>
<path d="M213.987 188.944C219.583 185.352 225.747 183.606 229.943 182.775C233.414 182.086 236.89 182.086 240.361 182.775C244.547 183.606 250.711 185.352 256.316 188.944C270.681 198.179 290.847 192.087 300.193 186.08C302.063 184.877 303.111 183.336 303.233 181.632C303.4 179.239 301.828 176.653 298.558 173.943C291.552 168.15 280.615 160.611 266.519 162.11C257.903 163.043 249.595 164.987 241.59 167.932C239.534 168.686 237.394 169.062 235.171 169.062C232.944 169.062 230.804 168.686 228.753 167.932C220.748 164.987 212.435 163.047 203.818 162.11C189.704 160.62 178.786 168.159 171.785 173.943C168.51 176.653 166.938 179.239 167.105 181.632C167.227 183.336 168.28 184.877 170.145 186.08C176.03 189.865 186.203 193.679 196.533 193.679C202.55 193.679 208.665 192.365 213.987 188.944ZM171.109 184.89C169.636 183.94 168.843 182.814 168.755 181.538C168.617 179.633 170.052 177.376 172.906 175.018C179.08 169.906 188.411 163.39 200.2 163.39C201.331 163.39 202.457 163.45 203.579 163.565C212.039 164.486 220.195 166.391 228.058 169.285C230.32 170.111 232.675 170.526 235.127 170.526C237.58 170.526 239.94 170.111 242.202 169.285C250.065 166.391 258.221 164.486 266.686 163.565C280.076 162.157 290.617 169.426 297.368 175.018C300.217 177.376 301.662 179.633 301.525 181.538C301.432 182.814 300.638 183.94 299.165 184.89C290.215 190.648 270.935 196.522 257.291 187.759C251.46 184.012 245.061 182.197 240.718 181.332C236.998 180.6 233.282 180.6 229.561 181.332C225.213 182.197 218.819 184.012 212.988 187.759C199.344 196.522 180.059 190.648 171.109 184.89Z" fill="#4F3215"/>
<path d="M246.398 188.11C246.177 188.041 245.962 188.05 245.751 188.135C245.541 188.221 245.394 188.362 245.316 188.551C245.159 188.94 244.939 189.295 244.65 189.621C244.361 189.946 244.018 190.22 243.626 190.447C243.235 190.674 242.814 190.841 242.358 190.948C241.908 191.055 241.443 191.094 240.978 191.068C240.508 191.042 240.057 190.952 239.622 190.798C239.186 190.64 238.789 190.43 238.437 190.16C238.079 189.895 237.781 189.582 237.541 189.227C237.301 188.876 237.13 188.499 237.032 188.097C239.769 187.874 241.83 186.894 241.83 185.716C241.83 184.372 239.142 183.297 235.832 183.297C232.523 183.297 229.835 184.372 229.835 185.716C229.835 186.928 232.028 187.93 234.897 188.11C234.794 188.512 234.623 188.889 234.378 189.24C234.138 189.595 233.84 189.903 233.482 190.169C233.125 190.434 232.733 190.648 232.298 190.798C231.862 190.952 231.411 191.042 230.941 191.068C230.476 191.094 230.016 191.051 229.561 190.944C229.11 190.841 228.689 190.674 228.298 190.447C227.906 190.22 227.568 189.942 227.279 189.621C226.99 189.295 226.765 188.94 226.609 188.551C226.53 188.362 226.388 188.221 226.178 188.135C225.967 188.05 225.752 188.041 225.531 188.11C225.316 188.178 225.154 188.306 225.057 188.491C224.959 188.675 224.949 188.863 225.027 189.051C225.248 189.565 225.551 190.032 225.933 190.464C226.315 190.892 226.765 191.265 227.274 191.577C227.788 191.89 228.337 192.13 228.934 192.292C229.526 192.459 230.134 192.545 230.755 192.549C231.074 192.549 231.382 192.524 231.695 192.481C232.606 192.327 233.433 192.014 234.182 191.535C234.927 191.055 235.524 190.456 235.96 189.741C236.4 190.456 236.998 191.046 237.747 191.522C238.491 192.001 239.323 192.309 240.234 192.459C240.542 192.502 240.855 192.528 241.174 192.528C241.795 192.524 242.403 192.438 243 192.271C243.592 192.108 244.145 191.868 244.655 191.556C245.164 191.243 245.614 190.871 245.996 190.443C246.378 190.01 246.681 189.544 246.902 189.03C246.975 188.842 246.961 188.658 246.863 188.482C246.765 188.302 246.608 188.178 246.398 188.11Z" fill="#4F3215"/>
<path d="M266.588 182.24C267.038 182.24 267.479 182.201 267.92 182.124C268.355 182.047 268.781 181.932 269.197 181.782C269.609 181.632 270 181.448 270.372 181.23C270.745 181.016 271.092 180.767 271.405 180.489C271.724 180.211 272.003 179.911 272.252 179.586C272.502 179.26 272.713 178.913 272.884 178.554C273.055 178.19 273.183 177.817 273.271 177.432C273.359 177.047 273.403 176.657 273.403 176.268C273.403 175.874 273.359 175.488 273.271 175.103C273.183 174.718 273.055 174.345 272.884 173.981C272.713 173.622 272.502 173.275 272.252 172.95C272.003 172.624 271.719 172.32 271.405 172.046C271.087 171.768 270.745 171.52 270.372 171.301C270 171.083 269.609 170.903 269.193 170.753C268.781 170.604 268.355 170.488 267.915 170.411C267.479 170.334 267.033 170.295 266.588 170.3C266.138 170.3 265.697 170.334 265.256 170.411C264.821 170.488 264.395 170.604 263.978 170.753C263.567 170.903 263.176 171.087 262.803 171.306C262.431 171.524 262.089 171.772 261.77 172.046C261.452 172.325 261.173 172.629 260.923 172.954C260.674 173.279 260.463 173.622 260.297 173.986C260.125 174.35 259.993 174.722 259.905 175.107C259.822 175.488 259.778 175.878 259.778 176.272C259.778 176.662 259.822 177.051 259.905 177.436C259.993 177.822 260.125 178.194 260.297 178.554C260.468 178.918 260.674 179.26 260.923 179.586C261.173 179.915 261.457 180.215 261.77 180.493C262.089 180.767 262.431 181.016 262.803 181.234C263.176 181.452 263.567 181.636 263.983 181.786C264.395 181.936 264.821 182.047 265.261 182.124C265.697 182.201 266.142 182.24 266.588 182.24Z" fill="#4F3215"/>
<path d="M208.509 171.194C208.891 171.4 209.243 171.64 209.571 171.905C209.899 172.175 210.193 172.466 210.452 172.783C210.717 173.099 210.937 173.438 211.123 173.797C211.309 174.153 211.456 174.521 211.559 174.902C211.662 175.283 211.72 175.673 211.735 176.062C211.75 176.456 211.72 176.846 211.652 177.231C211.578 177.616 211.466 177.993 211.309 178.361C211.152 178.729 210.957 179.08 210.722 179.414C210.487 179.748 210.217 180.057 209.909 180.343C209.605 180.63 209.272 180.887 208.91 181.118C208.548 181.345 208.161 181.542 207.755 181.705C207.348 181.867 206.927 181.996 206.492 182.086C206.056 182.176 205.615 182.227 205.17 182.24C204.719 182.253 204.279 182.231 203.833 182.167C203.392 182.103 202.962 182.004 202.546 181.867C202.124 181.73 201.728 181.559 201.346 181.354C200.964 181.148 200.612 180.908 200.284 180.643C199.956 180.378 199.662 180.082 199.402 179.765C199.138 179.449 198.918 179.11 198.732 178.755C198.546 178.395 198.399 178.027 198.296 177.646C198.193 177.265 198.134 176.876 198.12 176.486C198.105 176.092 198.129 175.702 198.203 175.317C198.276 174.932 198.389 174.555 198.546 174.187C198.702 173.819 198.898 173.468 199.133 173.134C199.368 172.8 199.637 172.492 199.941 172.205C200.249 171.918 200.582 171.661 200.945 171.43C201.307 171.203 201.694 171.006 202.1 170.843C202.506 170.681 202.927 170.552 203.363 170.462C203.799 170.372 204.239 170.321 204.685 170.308C205.131 170.295 205.576 170.317 206.017 170.381C206.457 170.445 206.888 170.544 207.309 170.681C207.73 170.818 208.127 170.989 208.509 171.194Z" fill="#4F3215"/>
<path d="M270.294 224.282C270.294 224.462 270.255 224.633 270.177 224.8C270.098 224.967 269.986 225.112 269.844 225.237C269.697 225.365 269.53 225.463 269.339 225.532C269.153 225.6 268.958 225.635 268.752 225.635C268.546 225.635 268.35 225.6 268.164 225.532C267.973 225.463 267.807 225.365 267.665 225.237C267.518 225.112 267.406 224.967 267.327 224.8C267.249 224.633 267.21 224.462 267.21 224.282C267.21 224.102 267.249 223.931 267.327 223.768C267.406 223.601 267.518 223.456 267.665 223.327C267.807 223.203 267.973 223.104 268.164 223.036C268.35 222.967 268.546 222.933 268.752 222.933C268.958 222.933 269.153 222.967 269.339 223.036C269.53 223.104 269.697 223.203 269.844 223.327C269.986 223.456 270.098 223.601 270.177 223.768C270.255 223.931 270.294 224.102 270.294 224.282Z" fill="#4F3215"/>
<path d="M273.369 227.257C273.369 227.437 273.329 227.608 273.251 227.775C273.173 227.938 273.065 228.084 272.918 228.212C272.776 228.34 272.61 228.435 272.419 228.503C272.233 228.572 272.032 228.606 271.831 228.606C271.626 228.606 271.43 228.572 271.239 228.503C271.053 228.435 270.886 228.34 270.74 228.212C270.598 228.084 270.485 227.938 270.407 227.775C270.328 227.608 270.289 227.437 270.289 227.257C270.289 227.078 270.328 226.906 270.407 226.739C270.485 226.577 270.598 226.431 270.74 226.303C270.886 226.174 271.053 226.08 271.239 226.011C271.43 225.943 271.626 225.909 271.831 225.909C272.032 225.909 272.233 225.943 272.419 226.011C272.61 226.08 272.776 226.174 272.918 226.303C273.065 226.431 273.173 226.577 273.251 226.739C273.329 226.906 273.369 227.078 273.369 227.257Z" fill="#4F3215"/>
<path d="M264.062 228.537C263.905 228.889 263.827 229.252 263.836 229.633C263.846 230.01 263.939 230.37 264.116 230.717C264.292 231.063 264.537 231.363 264.85 231.62C265.168 231.877 265.526 232.074 265.932 232.202C266.338 232.331 266.754 232.386 267.185 232.369C267.616 232.348 268.027 232.258 268.414 232.091C268.806 231.928 269.139 231.706 269.427 231.419C269.711 231.136 269.922 230.815 270.054 230.455C270.671 229.004 269.374 228.452 267.719 227.921C266.064 227.39 264.669 227.086 264.062 228.537Z" fill="#4F3215"/>
<path d="M206.193 224.153C206.193 224.329 206.154 224.504 206.075 224.667C205.997 224.834 205.884 224.98 205.738 225.104C205.596 225.232 205.429 225.331 205.238 225.399C205.052 225.468 204.856 225.502 204.651 225.502C204.445 225.502 204.249 225.468 204.063 225.399C203.872 225.331 203.706 225.232 203.559 225.104C203.417 224.98 203.304 224.834 203.226 224.667C203.148 224.504 203.109 224.329 203.109 224.153C203.109 223.974 203.148 223.798 203.226 223.635C203.304 223.468 203.417 223.323 203.559 223.199C203.706 223.07 203.872 222.972 204.063 222.903C204.249 222.835 204.445 222.801 204.651 222.801C204.856 222.801 205.052 222.835 205.238 222.903C205.429 222.972 205.596 223.07 205.738 223.199C205.884 223.323 205.997 223.468 206.075 223.635C206.154 223.798 206.193 223.974 206.193 224.153Z" fill="#4F3215"/>
<path d="M203.118 227.125C203.118 227.304 203.079 227.476 203.001 227.643C202.922 227.81 202.81 227.955 202.663 228.079C202.521 228.208 202.355 228.306 202.164 228.375C201.978 228.443 201.782 228.477 201.576 228.477C201.37 228.477 201.175 228.443 200.989 228.375C200.798 228.306 200.631 228.208 200.484 228.079C200.342 227.955 200.23 227.81 200.151 227.643C200.073 227.476 200.034 227.304 200.034 227.125C200.034 226.945 200.073 226.774 200.151 226.611C200.23 226.444 200.342 226.298 200.484 226.17C200.631 226.046 200.798 225.947 200.989 225.879C201.175 225.81 201.37 225.776 201.576 225.776C201.782 225.776 201.978 225.81 202.164 225.879C202.355 225.947 202.521 226.046 202.663 226.17C202.81 226.298 202.922 226.444 203.001 226.611C203.079 226.774 203.118 226.945 203.118 227.125Z" fill="#4F3215"/>
<path d="M205.703 227.788C204.044 228.323 202.756 228.863 203.363 230.323C203.5 230.678 203.711 230.999 203.995 231.282C204.284 231.564 204.616 231.787 205.003 231.95C205.395 232.112 205.801 232.202 206.232 232.219C206.658 232.236 207.074 232.181 207.481 232.052C207.882 231.924 208.244 231.731 208.558 231.474C208.871 231.217 209.116 230.918 209.292 230.575C209.468 230.229 209.561 229.869 209.576 229.492C209.586 229.115 209.512 228.756 209.356 228.405C208.734 226.953 207.343 227.257 205.703 227.788Z" fill="#4F3215"/>
<mask id="mask0_209_222" style="mask-type:luminance" maskUnits="userSpaceOnUse" x="160" y="104" width="150" height="133">
<path d="M160.544 104.544H309.064V236.886H160.544V104.544Z" fill="white"/>
</mask>
<g mask="url(#mask0_209_222)">
<path d="M287.532 205.406C301.97 199.994 309.01 190.01 309.01 174.893C309.03 170.304 308.374 165.791 307.042 161.352C305.711 156.912 303.752 152.699 301.162 148.709C302.847 142.638 303.659 136.482 303.591 130.231C303.522 123.985 302.582 117.837 300.766 111.796C300.658 111.428 300.521 111.064 300.355 110.709C300.193 110.358 300.002 110.011 299.792 109.677C299.576 109.347 299.341 109.026 299.082 108.718C298.822 108.41 298.543 108.119 298.24 107.845C297.936 107.566 297.618 107.31 297.28 107.07C296.937 106.83 296.585 106.607 296.213 106.406C295.841 106.205 295.459 106.025 295.062 105.867C294.666 105.708 294.259 105.571 293.843 105.46C293.427 105.349 293.001 105.259 292.57 105.19C292.144 105.126 291.709 105.083 291.273 105.066C290.837 105.045 290.401 105.053 289.971 105.083C289.535 105.113 289.104 105.165 288.678 105.242C288.247 105.323 287.831 105.421 287.415 105.546C287.004 105.67 286.602 105.82 286.211 105.987C285.819 106.158 285.442 106.346 285.08 106.556C284.717 106.77 284.37 107.001 284.037 107.25C273.942 114.857 262.417 121.459 262.304 121.519C262.167 121.596 262.069 121.69 261.996 121.814C257.594 120.581 253.11 119.652 248.547 119.032C243.979 118.407 239.387 118.098 234.77 118.098C230.148 118.098 225.556 118.411 220.993 119.04C216.425 119.665 211.946 120.594 207.544 121.832C207.476 121.703 207.373 121.6 207.236 121.519C207.118 121.459 195.579 114.857 185.494 107.25C185.165 107.001 184.818 106.77 184.456 106.56C184.088 106.351 183.711 106.158 183.32 105.991C182.933 105.824 182.532 105.678 182.115 105.554C181.704 105.43 181.288 105.327 180.857 105.25C180.431 105.173 180 105.118 179.57 105.088C179.134 105.058 178.698 105.053 178.262 105.07C177.827 105.092 177.396 105.135 176.965 105.199C176.539 105.267 176.113 105.357 175.697 105.469C175.281 105.58 174.874 105.717 174.478 105.875C174.081 106.034 173.699 106.214 173.327 106.415C172.96 106.616 172.603 106.834 172.265 107.074C171.927 107.314 171.604 107.575 171.305 107.849C171.002 108.123 170.723 108.414 170.463 108.722C170.204 109.031 169.969 109.347 169.753 109.681C169.538 110.015 169.352 110.358 169.185 110.713C169.024 111.064 168.887 111.428 168.774 111.796C166.958 117.85 166.018 124.006 165.954 130.27C165.891 136.529 166.708 142.698 168.402 148.782C165.827 152.759 163.878 156.963 162.552 161.39C161.23 165.817 160.579 170.317 160.598 174.893C160.598 190.203 167.795 200.255 182.605 205.607C183.217 205.834 183.863 206.048 184.509 206.258C179.819 207.679 170.894 211.905 172.103 223.378C172.133 223.665 172.299 223.871 172.603 223.986C172.901 224.102 173.185 224.076 173.45 223.901C173.631 223.781 192 211.922 207.569 218.943C207.628 219.14 207.681 219.341 207.74 219.542C206.267 219.324 204.817 219.401 203.383 219.765C201.013 220.305 199.202 221.366 198.135 222.792C196.911 224.44 196.666 226.521 197.415 228.978C198.791 233.499 202.756 236.62 206.756 236.62C207.334 236.62 207.902 236.556 208.46 236.428C210.624 235.918 212.381 234.463 213.365 232.412C215.49 235.34 217.835 236.83 220.352 236.83H220.435C222.506 236.8 224.195 236.137 225.448 234.848C225.644 234.647 225.83 234.433 225.997 234.206H246.892C246.922 234.21 246.951 234.21 246.98 234.206C247.152 234.433 247.333 234.651 247.534 234.857C248.792 236.145 250.476 236.809 252.552 236.839C255.127 236.873 257.526 235.349 259.695 232.318C260.679 234.424 262.456 235.918 264.664 236.436C265.232 236.569 265.81 236.633 266.397 236.633C268.277 236.595 269.947 236.047 271.391 234.985C273.423 233.581 274.955 231.449 275.704 228.987C276.453 226.525 276.213 224.445 274.984 222.801C273.917 221.371 272.106 220.322 269.741 219.769C268.262 219.397 266.764 219.333 265.247 219.572L265.413 218.994C281.006 211.875 299.449 223.785 299.635 223.905C299.899 224.081 300.183 224.106 300.482 223.991C300.781 223.875 300.947 223.67 300.981 223.383C302.244 211.554 292.232 206.917 287.532 205.406ZM285.138 108.367C285.413 108.157 285.706 107.969 286.01 107.789C286.313 107.613 286.627 107.455 286.955 107.314C287.283 107.173 287.621 107.053 287.963 106.946C288.311 106.843 288.659 106.757 289.016 106.693C289.373 106.629 289.736 106.586 290.098 106.56C290.46 106.535 290.827 106.53 291.19 106.547C291.557 106.56 291.919 106.595 292.277 106.65C292.634 106.706 292.991 106.783 293.339 106.877C293.687 106.971 294.024 107.087 294.357 107.22C294.69 107.352 295.008 107.502 295.322 107.669C295.63 107.84 295.929 108.024 296.213 108.226C296.497 108.427 296.761 108.641 297.016 108.872C297.265 109.103 297.5 109.347 297.721 109.604C297.936 109.861 298.132 110.127 298.313 110.409C298.489 110.687 298.646 110.974 298.783 111.27C298.92 111.565 299.038 111.869 299.131 112.177C300.834 117.854 301.755 123.625 301.882 129.491C302.014 135.36 301.353 141.157 299.904 146.885C296.428 142.035 292.203 137.758 287.219 134.05C280.262 128.9 272.483 125.008 263.886 122.375C266.48 120.86 276.345 115.003 285.138 108.367ZM170.414 112.177C170.507 111.869 170.625 111.565 170.762 111.27C170.899 110.974 171.056 110.687 171.232 110.409C171.413 110.127 171.609 109.861 171.829 109.604C172.045 109.347 172.28 109.103 172.529 108.872C172.784 108.641 173.053 108.427 173.337 108.226C173.616 108.024 173.915 107.84 174.223 107.669C174.537 107.502 174.855 107.352 175.188 107.22C175.521 107.087 175.859 106.971 176.211 106.877C176.559 106.783 176.911 106.706 177.269 106.65C177.631 106.595 177.993 106.56 178.355 106.547C178.718 106.53 179.085 106.535 179.447 106.56C179.809 106.586 180.172 106.629 180.529 106.693C180.887 106.757 181.234 106.843 181.582 106.946C181.924 107.053 182.262 107.173 182.59 107.314C182.918 107.455 183.232 107.613 183.535 107.789C183.844 107.969 184.132 108.157 184.407 108.367C193.229 115.016 203.123 120.89 205.684 122.388C197.097 125.021 189.332 128.908 182.385 134.05C177.376 137.775 173.132 142.078 169.651 146.958C168.192 141.217 167.526 135.407 167.658 129.529C167.785 123.647 168.706 117.867 170.414 112.177ZM162.282 174.893C162.282 143.358 193.459 119.575 234.799 119.575C263.734 119.575 287.679 131.229 299.454 149.035C299.493 149.146 299.557 149.244 299.65 149.33C302.186 153.222 304.1 157.336 305.402 161.673C306.705 166.01 307.341 170.415 307.321 174.898C307.321 207.101 274.49 209.721 234.804 209.721C216.876 209.721 200.347 209.186 187.609 205.628C172.147 201.304 162.282 192.541 162.282 174.893ZM259.749 210.509L236.503 215.985L214.394 210.779C220.675 211.087 227.475 211.194 234.799 211.194C243.925 211.194 252.234 211.031 259.749 210.509ZM184.225 217.308C180.514 218.511 177.004 220.056 173.695 221.957C173.244 209.781 185.582 207.375 187.329 207.097C192.715 208.574 198.786 209.541 205.552 210.167C205.733 211.168 206.232 213.84 207.089 217.102C200.485 214.555 192.641 214.619 184.225 217.308ZM208.034 235.002C204.416 235.85 200.382 232.977 199.05 228.597C198.438 226.564 198.6 224.881 199.554 223.601C200.387 222.484 201.865 221.649 203.824 221.182C204.612 220.99 205.41 220.891 206.227 220.883C206.918 220.874 207.588 220.964 208.244 221.152C208.313 221.375 208.386 221.593 208.46 221.812C208.528 222.034 208.592 222.231 208.661 222.437C208.754 222.728 208.856 223.006 208.969 223.289C209.033 223.473 209.096 223.661 209.16 223.841L209.199 223.948C208.94 223.956 208.695 224.025 208.475 224.145C208.249 224.265 208.073 224.423 207.946 224.62C207.814 224.817 207.745 225.031 207.74 225.258C207.735 225.489 207.794 225.703 207.912 225.909C208.005 226.067 208.127 226.204 208.284 226.324C208.44 226.44 208.617 226.525 208.807 226.581C209.003 226.637 209.204 226.654 209.41 226.641C209.61 226.624 209.806 226.577 209.987 226.495C210.046 226.465 210.105 226.431 210.159 226.397L210.178 226.448L210.266 226.645C210.408 226.988 210.555 227.322 210.707 227.647C210.771 227.788 210.839 227.917 210.908 228.066C211.02 228.302 211.133 228.542 211.246 228.773C211.324 228.927 211.402 229.077 211.481 229.227C211.588 229.428 211.691 229.633 211.789 229.83C211.872 229.98 211.955 230.126 212.044 230.276C212.127 230.43 212.195 230.545 212.274 230.691C211.608 232.939 210.036 234.531 208.024 235.002H208.034ZM252.596 235.353C251.01 235.332 249.776 234.857 248.841 233.893C245.928 230.913 246.931 224.453 246.946 224.389C246.97 224.192 246.912 224.012 246.77 223.858C246.633 223.7 246.452 223.61 246.226 223.58C246.001 223.554 245.795 223.597 245.614 223.712C245.428 223.828 245.316 223.982 245.277 224.179C245.237 224.419 244.503 229.128 246.143 232.729H226.873C228.513 229.128 227.779 224.419 227.74 224.179C227.705 223.978 227.598 223.815 227.412 223.691C227.226 223.571 227.015 223.524 226.785 223.554C226.56 223.584 226.374 223.678 226.232 223.841C226.095 224.004 226.041 224.188 226.075 224.389C226.075 224.453 227.089 230.913 224.175 233.893C223.24 234.857 222.007 235.332 220.42 235.353C218.159 235.392 215.975 233.671 213.904 230.271C213.209 229.111 212.597 227.921 212.063 226.696C211.167 224.646 210.394 222.556 209.752 220.433C208.479 216.319 207.686 212.478 207.339 210.646L236.288 217.47C236.43 217.505 236.577 217.505 236.724 217.47L265.673 210.655C265.325 212.491 264.522 216.362 263.244 220.493C263.092 220.985 262.936 221.469 262.779 221.944C262.583 222.531 262.383 223.096 262.182 223.644C261.394 225.883 260.4 228.045 259.195 230.134C257.095 233.628 254.863 235.392 252.586 235.353H252.596ZM269.325 221.191C271.288 221.649 272.762 222.484 273.599 223.61C274.549 224.89 274.715 226.568 274.098 228.606C273.442 230.759 272.115 232.622 270.368 233.829C268.693 234.989 266.823 235.409 265.119 235.011C263.053 234.531 261.467 232.883 260.84 230.58C260.924 230.438 261.002 230.284 261.085 230.139C261.168 229.997 261.237 229.873 261.31 229.74C261.423 229.531 261.531 229.312 261.643 229.094C261.712 228.966 261.775 228.837 261.844 228.704C261.966 228.456 262.089 228.195 262.211 227.934C262.265 227.818 262.319 227.711 262.368 227.596C262.539 227.227 262.706 226.846 262.872 226.452L262.887 226.422C262.902 226.38 262.921 226.328 262.941 226.285C263.078 226.44 263.249 226.564 263.45 226.658C263.631 226.739 263.827 226.786 264.028 226.803C264.233 226.816 264.429 226.795 264.625 226.739C264.821 226.684 264.997 226.598 265.149 226.482C265.305 226.367 265.428 226.23 265.521 226.071C265.614 225.909 265.673 225.742 265.687 225.562C265.702 225.386 265.677 225.211 265.619 225.04C265.555 224.868 265.457 224.719 265.325 224.582C265.193 224.445 265.036 224.333 264.85 224.252C264.507 224.098 264.145 224.068 263.773 224.153L263.881 223.858L264.062 223.344C264.16 223.057 264.263 222.779 264.365 222.484C264.434 222.287 264.498 222.077 264.566 221.876C264.635 221.675 264.708 221.448 264.777 221.225C266.03 220.801 267.597 220.788 269.315 221.191H269.325ZM288.889 217.308C280.424 214.606 272.532 214.555 265.937 217.141C266.931 213.313 267.474 210.291 267.538 209.811C274.074 209.058 279.91 207.927 285.065 206.266C286.994 206.664 299.836 209.764 299.415 221.957C296.105 220.056 292.595 218.506 288.879 217.308H288.889Z" fill="#4F3215"/>
</g>
<path d="M266.568 174.315C266.568 174.572 266.51 174.821 266.397 175.06C266.284 175.296 266.128 175.51 265.917 175.69C265.712 175.874 265.472 176.015 265.197 176.114C264.928 176.212 264.644 176.259 264.351 176.259C264.057 176.259 263.773 176.212 263.499 176.114C263.229 176.015 262.989 175.874 262.779 175.69C262.573 175.51 262.412 175.296 262.299 175.06C262.187 174.821 262.133 174.572 262.133 174.315C262.133 174.059 262.187 173.81 262.299 173.57C262.412 173.335 262.573 173.121 262.779 172.941C262.989 172.757 263.229 172.616 263.499 172.517C263.773 172.419 264.057 172.372 264.351 172.372C264.644 172.372 264.928 172.419 265.197 172.517C265.472 172.616 265.712 172.757 265.917 172.941C266.128 173.121 266.284 173.335 266.397 173.57C266.51 173.81 266.568 174.059 266.568 174.315Z" fill="white"/>
<path d="M209.547 174.315C209.547 174.572 209.493 174.821 209.38 175.06C209.268 175.296 209.106 175.51 208.895 175.69C208.69 175.874 208.45 176.015 208.176 176.114C207.906 176.212 207.623 176.259 207.329 176.259C207.035 176.259 206.751 176.212 206.482 176.114C206.208 176.015 205.968 175.874 205.762 175.69C205.552 175.51 205.39 175.296 205.277 175.06C205.165 174.821 205.111 174.572 205.111 174.315C205.111 174.059 205.165 173.81 205.277 173.57C205.39 173.335 205.552 173.121 205.762 172.941C205.968 172.757 206.208 172.616 206.482 172.517C206.751 172.419 207.035 172.372 207.329 172.372C207.623 172.372 207.906 172.419 208.176 172.517C208.45 172.616 208.69 172.757 208.895 172.941C209.106 173.121 209.268 173.335 209.38 173.57C209.493 173.81 209.547 174.059 209.547 174.315Z" fill="white"/>
<path d="M130.727 275.2C130.727 276.069 130.561 276.724 130.238 277.169C129.91 277.606 129.205 277.82 128.123 277.82C127.653 277.82 127.173 277.811 126.693 277.786C126.208 277.751 125.738 277.627 125.283 277.409C124.735 277.135 124.289 276.604 123.952 275.816C123.609 275.02 123.344 274.095 123.149 273.042C122.953 271.98 122.806 270.901 122.718 269.805C122.639 268.709 122.586 267.699 122.561 266.774C122.546 265.841 122.542 265.109 122.542 264.582C122.542 263.944 122.561 263.152 122.6 262.202C122.649 261.256 122.718 260.262 122.796 259.222C122.884 258.173 123.031 257.193 123.227 256.277C123.423 255.352 123.663 254.624 123.952 254.085C124.187 253.686 124.466 253.331 124.794 253.023C125.117 252.706 125.523 252.483 126.008 252.355C126.463 252.244 126.928 252.162 127.398 252.115C127.878 252.06 128.348 252.03 128.808 252.03C129.146 252.03 129.479 252.06 129.807 252.115C130.13 252.162 130.453 252.244 130.767 252.355C131.222 252.539 131.667 252.963 132.098 253.622C132.529 254.273 132.94 255.069 133.332 256.003C133.724 256.927 134.105 257.882 134.487 258.862C134.879 259.847 135.256 260.772 135.623 261.637C136 262.506 136.377 263.208 136.759 263.743C137.151 264.283 137.528 264.548 137.895 264.548C138.453 264.548 138.992 264.214 139.501 263.538C140.02 262.865 140.504 262.022 140.95 261.003C141.405 259.988 141.851 258.94 142.282 257.852C142.712 256.756 143.124 255.763 143.515 254.872C143.907 253.973 144.289 253.331 144.671 252.954C145.204 252.441 145.87 252.162 146.668 252.115C147.461 252.06 148.215 252.03 148.92 252.03C149.664 252.03 150.316 252.158 150.879 252.406C151.451 252.646 151.907 253.07 152.249 253.674C152.822 254.611 153.229 255.69 153.464 256.91C153.708 258.135 153.86 259.368 153.914 260.609C153.963 261.842 153.992 262.998 153.992 264.068C153.992 264.471 153.997 264.869 154.012 265.267C154.022 265.657 154.032 266.064 154.032 266.483C154.032 267.202 154.012 268.05 153.973 269.018C153.934 269.989 153.836 270.978 153.679 271.98C153.522 272.986 153.278 273.928 152.954 274.806C152.626 275.675 152.176 276.394 151.603 276.964C151.118 277.435 150.59 277.683 150.017 277.717C149.454 277.751 148.822 277.768 148.117 277.768C147.099 277.768 146.423 277.572 146.1 277.169C145.772 276.758 145.611 276.133 145.611 275.285C145.611 273.894 145.635 272.507 145.689 271.124C145.738 269.745 145.767 268.375 145.767 267.014C145.767 266.74 145.728 266.479 145.65 266.226C145.581 265.978 145.523 265.725 145.474 265.473C145.043 265.473 144.715 265.721 144.494 266.209C144.269 266.689 144.044 267.288 143.809 268.007C143.584 268.726 143.27 269.454 142.869 270.182C142.477 270.901 141.9 271.509 141.146 271.997C140.402 272.477 139.373 272.717 138.071 272.717C136.921 272.717 135.981 272.477 135.251 271.997C134.531 271.509 133.959 270.91 133.528 270.199C133.107 269.493 132.769 268.778 132.509 268.059C132.26 267.331 132.025 266.723 131.804 266.243C131.594 265.764 131.334 265.524 131.021 265.524C130.889 265.593 130.786 265.892 130.708 266.415C130.639 266.928 130.61 267.455 130.61 267.99C130.61 268.53 130.61 268.893 130.61 269.086C130.61 270.092 130.629 271.107 130.669 272.134C130.708 273.162 130.727 274.185 130.727 275.2Z" fill="#4F3215"/>
<path d="M161.873 277.82C160.972 277.82 160.154 277.794 159.425 277.734C158.705 277.666 158.132 277.435 157.701 277.032C157.271 276.634 157.055 275.936 157.055 274.943C157.055 274.326 157.212 273.397 157.525 272.152C157.839 270.91 158.26 269.493 158.798 267.905C159.346 266.32 159.958 264.681 160.639 262.99C161.315 261.303 162.01 259.714 162.715 258.229C163.43 256.735 164.13 255.463 164.81 254.41C165.5 253.348 166.112 252.655 166.651 252.321C167.131 252.025 167.611 251.854 168.081 251.807C168.551 251.751 169.065 251.721 169.628 251.721C170.538 251.721 171.282 251.807 171.86 251.978C172.448 252.141 173.04 252.539 173.642 253.177C174.058 253.656 174.568 254.44 175.17 255.523C175.767 256.598 176.389 257.869 177.03 259.342C177.667 260.806 178.303 262.33 178.93 263.914C179.556 265.503 180.115 267.048 180.614 268.555C181.108 270.062 181.5 271.407 181.789 272.58C182.088 273.757 182.239 274.66 182.239 275.285C182.239 275.928 182.048 276.424 181.671 276.775C181.29 277.118 180.795 277.366 180.183 277.512C179.566 277.661 178.935 277.76 178.284 277.803C177.627 277.837 177.05 277.854 176.541 277.854C175.689 277.854 175.116 277.734 174.817 277.495C174.514 277.255 174.337 276.959 174.289 276.604C174.249 276.24 174.22 275.846 174.21 275.422C174.195 275.003 174.058 274.613 173.799 274.258C173.549 273.894 173.06 273.599 172.33 273.367C171.61 273.128 170.514 273.008 169.04 273.008C167.811 273.008 166.915 273.128 166.357 273.367C165.809 273.599 165.442 273.894 165.261 274.258C165.075 274.613 164.977 274.994 164.967 275.405C164.952 275.816 164.893 276.206 164.791 276.57C164.698 276.925 164.438 277.221 164.007 277.46C163.576 277.7 162.862 277.82 161.873 277.82ZM169.295 267.648H170.196C170.612 267.648 170.964 267.545 171.253 267.339C171.537 267.125 171.684 266.817 171.684 266.415C171.684 266.243 171.635 265.918 171.547 265.439C171.469 264.95 171.356 264.402 171.214 263.795C171.067 263.178 170.91 262.579 170.744 261.996C170.573 261.414 170.377 260.93 170.156 260.541C169.946 260.155 169.745 259.958 169.549 259.958C169.378 259.958 169.187 260.155 168.981 260.541C168.786 260.93 168.595 261.414 168.414 261.996C168.227 262.579 168.061 263.187 167.904 263.812C167.748 264.428 167.62 264.985 167.532 265.473C167.454 265.952 167.415 266.278 167.415 266.449C167.415 266.941 167.601 267.267 167.983 267.425C168.374 267.575 168.81 267.648 169.295 267.648Z" fill="#4F3215"/>
<path d="M209.172 256.379C209.172 257.009 208.942 257.433 208.487 257.647C208.041 257.852 207.507 257.955 206.881 257.955C206.567 257.955 206.254 257.946 205.941 257.921C205.627 257.886 205.314 257.869 205.001 257.869C203.982 257.869 203.209 258.07 202.69 258.469C202.181 258.871 201.838 259.402 201.672 260.061C201.5 260.712 201.417 261.414 201.417 262.168C201.417 262.934 201.427 263.692 201.456 264.445C201.481 265.19 201.495 265.944 201.495 266.706C201.495 267.082 201.486 267.66 201.476 268.435C201.461 269.202 201.427 270.054 201.378 270.987C201.324 271.912 201.241 272.832 201.123 273.744C201.006 274.647 200.859 275.439 200.692 276.124C200.521 276.801 200.291 277.25 200.007 277.477C199.64 277.798 199.175 277.983 198.617 278.025C198.068 278.06 197.549 278.077 197.069 278.077C196.648 278.077 196.198 278.068 195.718 278.042C195.234 278.021 194.803 277.918 194.426 277.734C193.887 277.46 193.476 276.925 193.192 276.124C192.903 275.315 192.702 274.412 192.585 273.419C192.477 272.425 192.414 271.475 192.389 270.559C192.36 269.634 192.35 268.923 192.35 268.418C192.35 267.485 192.36 266.543 192.389 265.593C192.414 264.646 192.428 263.705 192.428 262.767C192.428 262.313 192.414 261.855 192.389 261.397C192.36 260.943 192.301 260.489 192.213 260.044C192.041 259.248 191.674 258.708 191.116 258.434C190.568 258.16 189.926 258.019 189.197 258.006C188.477 257.998 187.777 257.998 187.102 258.006C186.421 258.019 185.853 257.916 185.398 257.698C184.938 257.471 184.712 257.009 184.712 256.311C184.712 256.037 184.732 255.694 184.771 255.283C184.82 254.872 184.908 254.474 185.026 254.085C185.153 253.686 185.319 253.395 185.515 253.211C185.917 252.869 186.543 252.608 187.395 252.423C188.257 252.231 189.202 252.09 190.235 251.995C191.263 251.893 192.257 251.833 193.212 251.807C194.161 251.786 194.915 251.773 195.464 251.773C195.973 251.773 196.722 251.768 197.716 251.756C198.705 251.734 199.792 251.747 200.967 251.79C202.151 251.824 203.307 251.918 204.433 252.064C205.554 252.214 206.528 252.453 207.351 252.783C208.173 253.104 208.692 253.537 208.917 254.085C208.966 254.179 209.006 254.389 209.035 254.718C209.074 255.039 209.103 255.36 209.133 255.677C209.157 255.998 209.172 256.234 209.172 256.379Z" fill="#4F3215"/>
<path d="M218.415 251.995C219.497 251.995 220.188 252.316 220.491 252.954C220.79 253.584 220.942 254.29 220.942 255.078C220.942 255.557 220.907 256.028 220.844 256.482C220.79 256.94 220.765 257.403 220.765 257.869C220.765 258.875 220.824 259.667 220.942 260.25C221.069 260.832 221.412 261.251 221.96 261.5C222.518 261.739 223.429 261.859 224.682 261.859C225.935 261.859 226.924 261.65 227.659 261.226C228.403 260.806 228.775 259.988 228.775 258.777C228.775 258.083 228.716 257.398 228.599 256.722C228.491 256.05 228.442 255.365 228.442 254.667C228.442 253.879 228.589 253.241 228.893 252.749C229.206 252.248 229.862 251.995 230.87 251.995C231.208 251.995 231.664 252.012 232.241 252.047C232.829 252.081 233.402 252.158 233.965 252.269C234.537 252.385 234.934 252.552 235.159 252.766C235.639 253.168 236.026 253.789 236.315 254.633C236.599 255.48 236.814 256.431 236.961 257.492C237.103 258.546 237.201 259.612 237.255 260.695C237.304 261.769 237.333 262.78 237.333 263.726C237.333 264.676 237.333 265.447 237.333 266.038C237.333 266.612 237.318 267.365 237.294 268.298C237.264 269.223 237.201 270.199 237.098 271.227C237.005 272.246 236.873 273.192 236.706 274.069C236.535 274.951 236.295 275.641 235.982 276.142C235.864 276.313 235.727 276.484 235.57 276.655C235.414 276.827 235.223 276.976 235.003 277.101C234.425 277.477 233.734 277.709 232.927 277.786C232.114 277.854 231.37 277.888 230.694 277.888C229.95 277.888 229.407 277.644 229.069 277.152C228.726 276.651 228.511 276.073 228.423 275.422C228.344 274.763 228.305 274.189 228.305 273.71C228.305 273.051 228.334 272.383 228.403 271.706C228.481 271.034 228.52 270.362 228.52 269.685C228.52 268.923 228.325 268.375 227.933 268.041C227.551 267.699 227.057 267.489 226.445 267.408C225.842 267.318 225.181 267.271 224.467 267.271C223.042 267.271 222.038 267.553 221.451 268.11C220.873 268.671 220.589 269.574 220.589 270.816C220.589 271.432 220.628 272.074 220.707 272.734C220.795 273.384 220.844 274.048 220.844 274.72C220.844 275.294 220.795 275.825 220.707 276.313C220.628 276.792 220.413 277.178 220.06 277.46C219.708 277.747 219.12 277.888 218.298 277.888C217.774 277.888 217.191 277.871 216.555 277.837C215.928 277.794 215.37 277.683 214.89 277.512C214.313 277.319 213.838 276.869 213.461 276.159C213.094 275.452 212.815 274.613 212.619 273.641C212.423 272.674 212.276 271.672 212.188 270.644C212.11 269.608 212.061 268.658 212.051 267.802C212.036 266.945 212.031 266.286 212.031 265.815C212.031 265.143 212.036 264.248 212.051 263.127C212.061 262.009 212.11 260.832 212.188 259.599C212.276 258.357 212.408 257.201 212.58 256.14C212.746 255.069 213.001 254.269 213.343 253.742C213.485 253.549 213.637 253.365 213.794 253.194C213.95 253.014 214.127 252.86 214.323 252.732C214.895 252.368 215.542 252.158 216.261 252.098C216.991 252.03 217.71 251.995 218.415 251.995Z" fill="#4F3215"/>
<path d="M247.219 251.995C248.3 251.995 248.991 252.316 249.294 252.954C249.593 253.584 249.745 254.29 249.745 255.078C249.745 255.557 249.71 256.028 249.647 256.482C249.593 256.94 249.569 257.403 249.569 257.869C249.569 258.875 249.627 259.667 249.745 260.25C249.872 260.832 250.215 261.251 250.763 261.5C251.321 261.739 252.232 261.859 253.485 261.859C254.739 261.859 255.727 261.65 256.462 261.226C257.206 260.806 257.578 259.988 257.578 258.777C257.578 258.083 257.519 257.398 257.402 256.722C257.294 256.05 257.245 255.365 257.245 254.667C257.245 253.879 257.392 253.241 257.696 252.749C258.009 252.248 258.665 251.995 259.674 251.995C260.011 251.995 260.467 252.012 261.044 252.047C261.632 252.081 262.205 252.158 262.768 252.269C263.34 252.385 263.737 252.552 263.962 252.766C264.442 253.168 264.829 253.789 265.118 254.633C265.402 255.48 265.617 256.431 265.764 257.492C265.906 258.546 266.004 259.612 266.058 260.695C266.107 261.769 266.136 262.78 266.136 263.726C266.136 264.676 266.136 265.447 266.136 266.038C266.136 266.612 266.121 267.365 266.097 268.298C266.067 269.223 266.004 270.199 265.901 271.227C265.808 272.246 265.676 273.192 265.509 274.069C265.338 274.951 265.098 275.641 264.785 276.142C264.667 276.313 264.53 276.484 264.374 276.655C264.217 276.827 264.026 276.976 263.806 277.101C263.228 277.477 262.538 277.709 261.73 277.786C260.917 277.854 260.173 277.888 259.497 277.888C258.753 277.888 258.21 277.644 257.872 277.152C257.529 276.651 257.314 276.073 257.226 275.422C257.147 274.763 257.108 274.189 257.108 273.71C257.108 273.051 257.137 272.383 257.206 271.706C257.284 271.034 257.324 270.362 257.324 269.685C257.324 268.923 257.128 268.375 256.736 268.041C256.354 267.699 255.86 267.489 255.248 267.408C254.645 267.318 253.985 267.271 253.27 267.271C251.845 267.271 250.841 267.553 250.254 268.11C249.676 268.671 249.392 269.574 249.392 270.816C249.392 271.432 249.431 272.074 249.51 272.734C249.598 273.384 249.647 274.048 249.647 274.72C249.647 275.294 249.598 275.825 249.51 276.313C249.431 276.792 249.216 277.178 248.864 277.46C248.511 277.747 247.924 277.888 247.101 277.888C246.577 277.888 245.995 277.871 245.358 277.837C244.731 277.794 244.173 277.683 243.694 277.512C243.116 277.319 242.641 276.869 242.264 276.159C241.897 275.452 241.618 274.613 241.422 273.641C241.226 272.674 241.079 271.672 240.991 270.644C240.913 269.608 240.864 268.658 240.854 267.802C240.839 266.945 240.834 266.286 240.834 265.815C240.834 265.143 240.839 264.248 240.854 263.127C240.864 262.009 240.913 260.832 240.991 259.599C241.079 258.357 241.211 257.201 241.383 256.14C241.549 255.069 241.804 254.269 242.146 253.742C242.288 253.549 242.44 253.365 242.597 253.194C242.754 253.014 242.93 252.86 243.126 252.732C243.698 252.368 244.345 252.158 245.064 252.098C245.794 252.03 246.514 251.995 247.219 251.995Z" fill="#4F3215"/>
<path d="M278.372 270.285C278.372 271.599 279.155 272.254 280.722 272.254C281.882 272.254 283.057 272.237 284.247 272.203C285.446 272.169 286.626 272.151 287.791 272.151C288.834 272.151 289.5 272.314 289.789 272.631C290.073 272.952 290.22 273.551 290.22 274.429C290.22 275.195 289.994 275.825 289.554 276.313C289.108 276.792 288.545 277.161 287.87 277.409C287.189 277.649 286.45 277.82 285.657 277.923C284.859 278.025 284.119 278.077 283.444 278.077C281.926 278.077 280.34 278.072 278.685 278.06C277.025 278.051 275.483 277.794 274.063 277.289C272.497 276.72 271.424 275.902 270.852 274.84C270.289 273.77 269.956 272.537 269.853 271.141C269.784 270.229 269.74 269.322 269.716 268.418C269.686 267.506 269.677 266.586 269.677 265.661C269.677 264.92 269.667 264.184 269.657 263.452C269.642 262.724 269.637 261.979 269.637 261.226C269.637 258.875 269.931 257.056 270.519 255.763C271.116 254.461 272.007 253.532 273.182 252.971C274.367 252.415 275.831 252.077 277.569 251.961C279.317 251.837 281.348 251.773 283.659 251.773C284.624 251.773 285.627 251.888 286.675 252.115C287.732 252.334 288.599 252.762 289.28 253.4C289.671 253.776 289.931 254.222 290.063 254.735C290.19 255.241 290.259 255.741 290.259 256.242C290.259 256.756 290.009 257.129 289.515 257.355C289.015 257.587 288.447 257.715 287.811 257.749C287.169 257.784 286.636 257.801 286.205 257.801C285.5 257.801 284.795 257.775 284.09 257.715C283.395 257.647 282.7 257.612 281.995 257.612C281.197 257.612 280.526 257.647 279.977 257.715C279.439 257.775 279.042 257.972 278.783 258.314C278.533 258.648 278.411 259.235 278.411 260.078C278.411 260.673 278.646 261.106 279.116 261.38C279.586 261.654 280.139 261.834 280.78 261.911C281.417 261.979 281.995 262.013 282.504 262.013C283.155 262.013 283.801 261.996 284.442 261.962C285.079 261.928 285.715 261.911 286.342 261.911C286.876 261.911 287.424 261.971 287.987 262.082C288.56 262.185 289.015 262.437 289.358 262.835C289.593 263.088 289.72 263.435 289.75 263.88C289.774 264.325 289.789 264.698 289.789 264.993C289.789 265.246 289.754 265.507 289.691 265.781C289.637 266.055 289.539 266.29 289.397 266.483C289.201 266.736 288.819 266.924 288.261 267.048C287.713 267.177 287.091 267.254 286.401 267.288C285.706 267.322 285.05 267.335 284.423 267.322C283.796 267.314 283.312 267.305 282.974 267.305C282.631 267.305 282.195 267.305 281.662 267.305C281.138 267.305 280.633 267.339 280.154 267.408C279.669 267.468 279.292 267.592 279.018 267.785C278.871 267.887 278.763 268.02 278.685 268.178C278.616 268.341 278.553 268.512 278.489 268.692C278.435 268.932 278.401 269.189 278.391 269.463C278.377 269.737 278.372 270.011 278.372 270.285Z" fill="#4F3215"/>
<path d="M302.311 274.789C302.311 275.362 302.262 275.885 302.174 276.364C302.096 276.835 301.881 277.203 301.528 277.477C301.176 277.751 300.598 277.888 299.805 277.888C299.256 277.888 298.693 277.867 298.121 277.82C297.558 277.764 297.024 277.649 296.515 277.477C295.927 277.25 295.443 276.737 295.066 275.936C294.698 275.127 294.424 274.155 294.243 273.025C294.057 271.895 293.93 270.743 293.851 269.566C293.783 268.38 293.754 267.297 293.754 266.312C293.754 265.331 293.754 264.595 293.754 264.103C293.754 262.814 293.793 261.525 293.871 260.232C293.959 258.931 294.116 257.647 294.341 256.379C294.459 255.866 294.64 255.241 294.889 254.496C295.149 253.742 295.506 253.194 295.966 252.852C296.446 252.501 297.122 252.227 297.984 252.03C298.855 251.824 299.795 251.683 300.804 251.601C301.807 251.512 302.781 251.456 303.721 251.43C304.661 251.409 305.445 251.396 306.071 251.396C307.521 251.396 308.94 251.584 310.341 251.961C311.751 252.329 313.033 252.882 314.199 253.622C315.359 254.354 316.284 255.258 316.979 256.328C317.684 257.39 318.037 258.618 318.037 260.01C318.037 260.481 317.978 260.952 317.861 261.431C317.753 261.902 317.547 262.347 317.234 262.767C316.774 263.409 316.24 263.996 315.628 264.531C315.011 265.07 314.341 265.55 313.611 265.969C313.518 265.995 313.356 266.081 313.121 266.226C312.896 266.376 312.789 266.5 312.789 266.603C312.789 266.671 312.886 266.817 313.082 267.031C313.288 267.237 313.513 267.442 313.748 267.648C313.993 267.845 314.159 267.982 314.238 268.059C314.551 268.358 314.894 268.876 315.276 269.617C315.667 270.362 316.039 271.184 316.392 272.083C316.754 272.973 317.048 273.821 317.273 274.617C317.493 275.405 317.606 276.013 317.606 276.433C317.606 276.754 317.376 277.015 316.921 277.22C316.475 277.417 315.932 277.563 315.295 277.666C314.654 277.768 314.032 277.837 313.435 277.871C312.833 277.905 312.407 277.923 312.162 277.923C311.246 277.923 310.546 277.709 310.066 277.272C309.582 276.839 309.215 276.279 308.97 275.594C308.735 274.909 308.519 274.181 308.324 273.402C308.128 272.614 307.858 271.886 307.521 271.21C307.178 270.525 306.679 269.968 306.013 269.531C305.357 269.086 304.436 268.863 303.251 268.863C302.909 268.863 302.664 269.086 302.507 269.531C302.351 269.968 302.258 270.439 302.233 270.953C302.204 271.458 302.194 271.818 302.194 272.032C302.194 272.49 302.214 272.948 302.253 273.402C302.292 273.86 302.311 274.322 302.311 274.789ZM302.233 258.691V261.911C302.233 262.253 302.282 262.639 302.39 263.058C302.507 263.482 302.84 263.692 303.389 263.692C304.431 263.692 305.406 263.619 306.306 263.469C307.217 263.324 307.971 262.998 308.559 262.493C309.146 261.979 309.44 261.166 309.44 260.044C309.44 259.372 309.224 258.803 308.794 258.332C308.363 257.852 307.814 257.488 307.149 257.236C306.483 256.974 305.807 256.842 305.131 256.842H303.898C303.242 256.842 302.801 257.03 302.566 257.407C302.341 257.775 302.233 258.203 302.233 258.691Z" fill="#4F3215"/>
<path d="M333.679 251.43C335.882 251.43 337.949 251.764 339.868 252.423C341.787 253.074 343.456 254.008 344.881 255.215C346.301 256.414 347.417 257.844 348.23 259.496C349.038 261.153 349.444 262.964 349.444 264.925C349.444 266.706 349.057 268.414 348.289 270.045C347.515 271.668 346.448 273.11 345.077 274.378C343.716 275.645 342.139 276.647 340.338 277.375C338.536 278.094 336.583 278.453 334.482 278.453C332.26 278.453 330.203 278.12 328.314 277.443C326.434 276.771 324.789 275.825 323.379 274.6C321.978 273.367 320.882 271.929 320.089 270.285C319.29 268.641 318.894 266.856 318.894 264.925C318.894 263.109 319.256 261.393 319.991 259.77C320.735 258.139 321.773 256.7 323.104 255.455C324.436 254.213 325.993 253.228 327.785 252.509C329.586 251.79 331.55 251.43 333.679 251.43ZM334.521 272.477C335.892 272.477 337.013 272.134 337.89 271.449C338.776 270.756 339.437 269.887 339.868 268.846C340.308 267.797 340.534 266.749 340.534 265.695C340.534 264.736 340.455 263.773 340.299 262.801C340.142 261.834 339.838 260.935 339.398 260.113C338.967 259.291 338.321 258.636 337.459 258.143C336.607 257.642 335.505 257.39 334.149 257.39C332.803 257.39 331.711 257.642 330.879 258.143C330.042 258.636 329.395 259.291 328.94 260.113C328.48 260.935 328.167 261.838 328 262.818C327.829 263.803 327.746 264.762 327.746 265.695C327.746 266.941 327.985 268.084 328.47 269.12C328.95 270.148 329.694 270.966 330.703 271.569C331.721 272.177 332.994 272.477 334.521 272.477Z" fill="#4F3215"/>
<path d="M72.6728 302.508C71.5468 302.508 70.6068 302.363 69.8528 302.08C69.094 301.798 68.5212 301.425 68.1295 300.967C67.7476 300.501 67.5518 300.004 67.542 299.477C67.542 299.387 67.5714 299.315 67.6399 299.255C67.7036 299.199 67.7868 299.169 67.8945 299.169H69.7941C69.9507 299.169 70.0682 299.199 70.1466 299.255C70.2249 299.302 70.3032 299.366 70.3816 299.443C70.4599 299.627 70.5872 299.803 70.7732 299.974C70.9544 300.137 71.1943 300.265 71.4978 300.368C71.8112 300.462 72.2028 300.505 72.6728 300.505C73.4268 300.505 73.9947 300.402 74.3766 300.197C74.7682 299.982 74.9641 299.691 74.9641 299.323C74.9641 299.062 74.8564 298.852 74.6507 298.69C74.4402 298.531 74.1122 298.381 73.6716 298.244C73.2407 298.107 72.6581 297.97 71.9287 297.833C71.0523 297.653 70.3081 297.435 69.6962 297.183C69.0793 296.921 68.6191 296.583 68.3057 296.172C68.0022 295.753 67.8553 295.23 67.8553 294.614C67.8553 294.01 68.0414 293.466 68.4232 292.987C68.8149 292.507 69.3534 292.139 70.0487 291.874C70.7537 291.6 71.5957 291.463 72.5749 291.463C73.3582 291.463 74.0486 291.557 74.6507 291.737C75.248 291.921 75.7523 292.161 76.1587 292.456C76.5601 292.756 76.8686 293.073 77.0791 293.415C77.2847 293.749 77.3973 294.074 77.412 294.391C77.412 294.485 77.3777 294.562 77.3141 294.631C77.2455 294.699 77.1574 294.734 77.0399 294.734H75.0816C74.9641 294.734 74.8564 294.717 74.7682 294.682C74.6752 294.639 74.592 294.562 74.5137 294.46C74.4598 294.177 74.2591 293.937 73.9066 293.74C73.5639 293.548 73.1232 293.449 72.5749 293.449C71.9972 293.449 71.5419 293.543 71.2041 293.723C70.8761 293.907 70.7145 294.186 70.7145 294.562C70.7145 294.802 70.7977 295.008 70.9691 295.179C71.1502 295.35 71.4391 295.5 71.8307 295.624C72.2322 295.753 72.7756 295.89 73.4562 296.035C74.4598 296.219 75.2823 296.442 75.9237 296.703C76.5748 296.968 77.0497 297.298 77.3532 297.696C77.6666 298.099 77.8232 298.604 77.8232 299.22C77.8232 299.905 77.598 300.496 77.1574 300.984C76.7266 301.477 76.1244 301.853 75.3557 302.115C74.5822 302.376 73.6912 302.508 72.6728 302.508Z" fill="#4F3215"/>
<path d="M91.576 302.508C90.5185 302.508 89.603 302.354 88.8344 302.046C88.0608 301.738 87.4537 301.275 87.0131 300.659C86.5823 300.042 86.3522 299.263 86.3277 298.313C86.313 297.88 86.3081 297.448 86.3081 297.011C86.3081 296.579 86.313 296.134 86.3277 295.676C86.3522 294.764 86.5823 293.993 87.0131 293.364C87.4537 292.726 88.0706 292.251 88.8539 291.942C89.6373 291.625 90.543 291.463 91.576 291.463C92.6041 291.463 93.505 291.625 94.2785 291.942C95.0619 292.251 95.6738 292.726 96.1194 293.364C96.5747 293.993 96.8146 294.764 96.8439 295.676C96.8684 296.134 96.8831 296.579 96.8831 297.011C96.8831 297.448 96.8684 297.88 96.8439 298.313C96.8146 299.263 96.5796 300.042 96.1389 300.659C95.6934 301.275 95.0863 301.738 94.3177 302.046C93.5441 302.354 92.6335 302.508 91.576 302.508ZM91.576 300.505C92.2516 300.505 92.8147 300.329 93.2602 299.974C93.7008 299.623 93.9309 299.045 93.9456 298.244C93.9701 297.79 93.9848 297.367 93.9848 296.977C93.9848 296.579 93.9701 296.164 93.9456 295.727C93.9309 295.192 93.8183 294.759 93.6127 294.425C93.4022 294.083 93.1231 293.839 92.7706 293.689C92.4279 293.531 92.0313 293.449 91.576 293.449C91.1305 293.449 90.7339 293.531 90.3814 293.689C90.0387 293.839 89.7597 294.083 89.5394 294.425C89.3288 294.759 89.2162 295.192 89.2064 295.727C89.1918 296.164 89.1869 296.579 89.1869 296.977C89.1869 297.367 89.1918 297.79 89.2064 298.244C89.2309 299.045 89.461 299.623 89.8919 299.974C90.3325 300.329 90.8955 300.505 91.576 300.505Z" fill="#4F3215"/>
<path d="M110.473 302.508C109.347 302.508 108.407 302.363 107.653 302.08C106.894 301.798 106.321 301.425 105.929 300.967C105.547 300.501 105.352 300.004 105.342 299.477C105.342 299.387 105.371 299.315 105.44 299.255C105.503 299.199 105.587 299.169 105.694 299.169H107.594C107.751 299.169 107.868 299.199 107.946 299.255C108.025 299.302 108.103 299.366 108.181 299.443C108.26 299.627 108.387 299.803 108.573 299.974C108.754 300.137 108.994 300.265 109.298 300.368C109.611 300.462 110.003 300.505 110.473 300.505C111.227 300.505 111.795 300.402 112.176 300.197C112.568 299.982 112.764 299.691 112.764 299.323C112.764 299.062 112.656 298.852 112.451 298.69C112.24 298.531 111.912 298.381 111.471 298.244C111.041 298.107 110.458 297.97 109.728 297.833C108.852 297.653 108.108 297.435 107.496 297.183C106.879 296.921 106.419 296.583 106.106 296.172C105.802 295.753 105.655 295.23 105.655 294.614C105.655 294.01 105.841 293.466 106.223 292.987C106.615 292.507 107.153 292.139 107.848 291.874C108.553 291.6 109.396 291.463 110.375 291.463C111.158 291.463 111.848 291.557 112.451 291.737C113.048 291.921 113.552 292.161 113.958 292.456C114.36 292.756 114.668 293.073 114.879 293.415C115.085 293.749 115.197 294.074 115.212 294.391C115.212 294.485 115.178 294.562 115.114 294.631C115.045 294.699 114.957 294.734 114.84 294.734H112.881C112.764 294.734 112.656 294.717 112.568 294.682C112.475 294.639 112.392 294.562 112.313 294.46C112.26 294.177 112.059 293.937 111.706 293.74C111.364 293.548 110.923 293.449 110.375 293.449C109.797 293.449 109.342 293.543 109.004 293.723C108.676 293.907 108.514 294.186 108.514 294.562C108.514 294.802 108.598 295.008 108.769 295.179C108.95 295.35 109.239 295.5 109.631 295.624C110.032 295.753 110.575 295.89 111.256 296.035C112.26 296.219 113.082 296.442 113.723 296.703C114.375 296.968 114.85 297.298 115.153 297.696C115.466 298.099 115.623 298.604 115.623 299.22C115.623 299.905 115.398 300.496 114.957 300.984C114.526 301.477 113.924 301.853 113.156 302.115C112.382 302.376 111.491 302.508 110.473 302.508Z" fill="#4F3215"/>
<path d="M124.93 302.354C124.813 302.354 124.705 302.32 124.617 302.252C124.539 302.175 124.5 302.08 124.5 301.978V291.994C124.5 291.882 124.539 291.788 124.617 291.72C124.705 291.651 124.813 291.617 124.93 291.617H132.901C133.018 291.617 133.116 291.651 133.195 291.72C133.283 291.788 133.332 291.882 133.332 291.994V293.227C133.332 293.342 133.283 293.432 133.195 293.501C133.116 293.569 133.018 293.603 132.901 293.603H127.202V296.001H132.509C132.637 296.001 132.744 296.044 132.823 296.121C132.901 296.189 132.94 296.275 132.94 296.378V297.525C132.94 297.628 132.901 297.722 132.823 297.799C132.744 297.868 132.637 297.902 132.509 297.902H127.202V300.368H133.038C133.165 300.368 133.273 300.402 133.351 300.471C133.43 300.539 133.469 300.633 133.469 300.745V301.978C133.469 302.08 133.43 302.175 133.351 302.252C133.273 302.32 133.165 302.354 133.038 302.354H124.93Z" fill="#4F3215"/>
<path d="M143.034 302.354C142.902 302.354 142.79 302.32 142.702 302.252C142.623 302.175 142.584 302.08 142.584 301.978V291.994C142.584 291.882 142.623 291.788 142.702 291.72C142.79 291.651 142.902 291.617 143.034 291.617H144.679C144.846 291.617 144.978 291.66 145.071 291.737C145.159 291.818 145.218 291.882 145.247 291.925L148.479 297.114L151.729 291.925C151.754 291.882 151.808 291.818 151.886 291.737C151.974 291.66 152.111 291.617 152.297 291.617H153.923C154.05 291.617 154.158 291.651 154.236 291.72C154.324 291.788 154.373 291.882 154.373 291.994V301.978C154.373 302.08 154.324 302.175 154.236 302.252C154.158 302.32 154.05 302.354 153.923 302.354H152.141C152.023 302.354 151.916 302.32 151.827 302.252C151.749 302.175 151.71 302.08 151.71 301.978V295.795L149.477 299.426C149.438 299.52 149.37 299.597 149.282 299.666C149.189 299.734 149.056 299.768 148.89 299.768H148.067C147.911 299.768 147.783 299.734 147.695 299.666C147.602 299.597 147.524 299.52 147.46 299.426L145.247 295.795V301.978C145.247 302.08 145.208 302.175 145.13 302.252C145.052 302.32 144.944 302.354 144.817 302.354H143.034Z" fill="#4F3215"/>
<path d="M178.404 302.354C178.218 302.354 178.071 302.316 177.954 302.234C177.836 302.145 177.748 302.038 177.699 301.909L174.037 292.079C174.023 292.024 174.018 291.977 174.018 291.942C174.018 291.852 174.047 291.78 174.116 291.72C174.194 291.651 174.282 291.617 174.39 291.617H176.25C176.431 291.617 176.568 291.664 176.661 291.754C176.764 291.835 176.828 291.908 176.857 291.977L179.56 299.477L182.282 291.977C182.306 291.908 182.365 291.835 182.458 291.754C182.546 291.664 182.693 291.617 182.889 291.617H184.749C184.837 291.617 184.926 291.651 185.004 291.72C185.082 291.78 185.121 291.852 185.121 291.942C185.121 291.977 185.107 292.024 185.082 292.079L181.42 301.909C181.366 302.038 181.283 302.145 181.166 302.234C181.058 302.316 180.911 302.354 180.715 302.354H178.404Z" fill="#4F3215"/>
<path d="M198.732 302.508C197.675 302.508 196.759 302.354 195.991 302.046C195.217 301.738 194.61 301.275 194.169 300.659C193.739 300.042 193.509 299.263 193.484 298.313C193.469 297.88 193.464 297.448 193.464 297.011C193.464 296.579 193.469 296.134 193.484 295.676C193.509 294.764 193.739 293.993 194.169 293.364C194.61 292.726 195.227 292.251 196.01 291.942C196.794 291.625 197.699 291.463 198.732 291.463C199.761 291.463 200.661 291.625 201.435 291.942C202.218 292.251 202.83 292.726 203.276 293.364C203.731 293.993 203.971 294.764 204 295.676C204.025 296.134 204.039 296.579 204.039 297.011C204.039 297.448 204.025 297.88 204 298.313C203.971 299.263 203.736 300.042 203.295 300.659C202.85 301.275 202.243 301.738 201.474 302.046C200.701 302.354 199.79 302.508 198.732 302.508ZM198.732 300.505C199.408 300.505 199.971 300.329 200.417 299.974C200.857 299.623 201.087 299.045 201.102 298.244C201.126 297.79 201.141 297.367 201.141 296.977C201.141 296.579 201.126 296.164 201.102 295.727C201.087 295.192 200.975 294.759 200.769 294.425C200.559 294.083 200.279 293.839 199.927 293.689C199.584 293.531 199.188 293.449 198.732 293.449C198.287 293.449 197.89 293.531 197.538 293.689C197.195 293.839 196.916 294.083 196.696 294.425C196.485 294.759 196.373 295.192 196.363 295.727C196.348 296.164 196.343 296.579 196.343 296.977C196.343 297.367 196.348 297.79 196.363 298.244C196.387 299.045 196.617 299.623 197.048 299.974C197.489 300.329 198.052 300.505 198.732 300.505Z" fill="#4F3215"/>
<path d="M213.634 302.354C213.517 302.354 213.409 302.32 213.321 302.252C213.242 302.175 213.203 302.08 213.203 301.978V291.994C213.203 291.882 213.242 291.788 213.321 291.72C213.409 291.651 213.517 291.617 213.634 291.617H215.612C215.729 291.617 215.827 291.651 215.906 291.72C215.994 291.788 216.043 291.882 216.043 291.994V300.282H221.467C221.595 300.282 221.702 300.325 221.781 300.402C221.869 300.471 221.918 300.556 221.918 300.659V301.978C221.918 302.08 221.869 302.175 221.781 302.252C221.702 302.32 221.595 302.354 221.467 302.354H213.634Z" fill="#4F3215"/>
<path d="M233.686 302.354C233.554 302.354 233.442 302.32 233.354 302.252C233.275 302.175 233.236 302.08 233.236 301.978V293.758H230.044C229.926 293.758 229.829 293.723 229.75 293.655C229.672 293.586 229.633 293.496 229.633 293.381V291.994C229.633 291.882 229.672 291.788 229.75 291.72C229.829 291.651 229.926 291.617 230.044 291.617H239.248C239.375 291.617 239.483 291.651 239.561 291.72C239.64 291.788 239.679 291.882 239.679 291.994V293.381C239.679 293.496 239.64 293.586 239.561 293.655C239.483 293.723 239.375 293.758 239.248 293.758H236.076V301.978C236.076 302.08 236.027 302.175 235.939 302.252C235.86 302.32 235.752 302.354 235.625 302.354H233.686Z" fill="#4F3215"/>
<path d="M259.698 302.354C259.58 302.354 259.472 302.32 259.384 302.252C259.306 302.175 259.267 302.08 259.267 301.978V291.994C259.267 291.882 259.306 291.788 259.384 291.72C259.472 291.651 259.58 291.617 259.698 291.617H261.597C261.715 291.617 261.813 291.651 261.891 291.72C261.979 291.788 262.028 291.882 262.028 291.994V295.487L265.631 291.908C265.671 291.84 265.739 291.78 265.847 291.72C265.964 291.651 266.121 291.617 266.317 291.617H268.451C268.54 291.617 268.628 291.651 268.706 291.72C268.784 291.78 268.824 291.852 268.824 291.942C268.824 292.011 268.794 292.071 268.745 292.114L264.241 296.754L269.078 301.841C269.127 301.888 269.156 301.952 269.156 302.029C269.156 302.11 269.117 302.183 269.039 302.252C268.961 302.32 268.872 302.354 268.784 302.354H266.571C266.361 302.354 266.204 302.316 266.101 302.234C265.994 302.157 265.925 302.097 265.886 302.063L262.028 298.142V301.978C262.028 302.08 261.979 302.175 261.891 302.252C261.813 302.32 261.715 302.354 261.597 302.354H259.698Z" fill="#4F3215"/>
<path d="M282.508 302.508C281.451 302.508 280.535 302.354 279.766 302.046C278.993 301.738 278.386 301.275 277.945 300.659C277.514 300.042 277.284 299.263 277.26 298.313C277.245 297.88 277.24 297.448 277.24 297.011C277.24 296.579 277.245 296.134 277.26 295.676C277.284 294.764 277.514 293.993 277.945 293.364C278.386 292.726 279.003 292.251 279.786 291.942C280.569 291.625 281.475 291.463 282.508 291.463C283.536 291.463 284.437 291.625 285.211 291.942C285.994 292.251 286.606 292.726 287.051 293.364C287.507 293.993 287.747 294.764 287.776 295.676C287.8 296.134 287.815 296.579 287.815 297.011C287.815 297.448 287.8 297.88 287.776 298.313C287.747 299.263 287.512 300.042 287.071 300.659C286.625 301.275 286.018 301.738 285.25 302.046C284.476 302.354 283.566 302.508 282.508 302.508ZM282.508 300.505C283.184 300.505 283.747 300.329 284.192 299.974C284.633 299.623 284.863 299.045 284.878 298.244C284.902 297.79 284.917 297.367 284.917 296.977C284.917 296.579 284.902 296.164 284.878 295.727C284.863 295.192 284.75 294.759 284.545 294.425C284.334 294.083 284.055 293.839 283.703 293.689C283.36 293.531 282.963 293.449 282.508 293.449C282.063 293.449 281.666 293.531 281.314 293.689C280.971 293.839 280.692 294.083 280.471 294.425C280.261 294.759 280.148 295.192 280.139 295.727C280.124 296.164 280.119 296.579 280.119 296.977C280.119 297.367 280.124 297.79 280.139 298.244C280.163 299.045 280.393 299.623 280.824 299.974C281.265 300.329 281.828 300.505 282.508 300.505ZM283.781 290.846C283.649 290.846 283.546 290.821 283.468 290.761C283.399 290.692 283.37 290.602 283.37 290.487V289.237C283.37 289.134 283.399 289.048 283.468 288.98C283.546 288.911 283.649 288.877 283.781 288.877H285.211C285.328 288.877 285.426 288.911 285.504 288.98C285.583 289.048 285.622 289.134 285.622 289.237V290.487C285.622 290.602 285.583 290.692 285.504 290.761C285.426 290.821 285.328 290.846 285.211 290.846H283.781ZM279.766 290.846C279.659 290.846 279.571 290.821 279.492 290.761C279.424 290.692 279.394 290.602 279.394 290.487V289.237C279.394 289.134 279.424 289.048 279.492 288.98C279.571 288.911 279.659 288.877 279.766 288.877H281.235C281.353 288.877 281.441 288.911 281.509 288.98C281.588 289.048 281.627 289.134 281.627 289.237V290.487C281.627 290.602 281.588 290.692 281.509 290.761C281.441 290.821 281.353 290.846 281.235 290.846H279.766Z" fill="#4F3215"/>
<path d="M297.41 302.354C297.292 302.354 297.185 302.32 297.097 302.252C297.018 302.175 296.979 302.08 296.979 301.978V291.994C296.979 291.882 297.018 291.788 297.097 291.72C297.185 291.651 297.292 291.617 297.41 291.617H299.016C299.197 291.617 299.329 291.651 299.407 291.72C299.486 291.788 299.535 291.848 299.564 291.891L304.225 298.279V291.994C304.225 291.882 304.264 291.788 304.342 291.72C304.43 291.651 304.543 291.617 304.675 291.617H306.457C306.585 291.617 306.692 291.651 306.771 291.72C306.859 291.788 306.908 291.882 306.908 291.994V301.978C306.908 302.08 306.859 302.175 306.771 302.252C306.692 302.32 306.585 302.354 306.457 302.354H304.852C304.665 302.354 304.538 302.32 304.46 302.252C304.382 302.175 304.328 302.115 304.303 302.08L299.642 295.898V301.978C299.642 302.08 299.603 302.175 299.525 302.252C299.447 302.32 299.339 302.354 299.212 302.354H297.41Z" fill="#4F3215"/>
<path d="M316.932 302.354C316.815 302.354 316.707 302.32 316.619 302.252C316.541 302.175 316.501 302.08 316.501 301.978V291.994C316.501 291.882 316.541 291.788 316.619 291.72C316.707 291.651 316.815 291.617 316.932 291.617H318.538C318.719 291.617 318.851 291.651 318.93 291.72C319.008 291.788 319.057 291.848 319.086 291.891L323.747 298.279V291.994C323.747 291.882 323.786 291.788 323.865 291.72C323.953 291.651 324.065 291.617 324.198 291.617H325.98C326.107 291.617 326.215 291.651 326.293 291.72C326.381 291.788 326.43 291.882 326.43 291.994V301.978C326.43 302.08 326.381 302.175 326.293 302.252C326.215 302.32 326.107 302.354 325.98 302.354H324.374C324.188 302.354 324.061 302.32 323.982 302.252C323.904 302.175 323.85 302.115 323.826 302.08L319.165 295.898V301.978C319.165 302.08 319.126 302.175 319.047 302.252C318.969 302.32 318.861 302.354 318.734 302.354H316.932Z" fill="#4F3215"/>
<path d="M339.666 302.354C339.534 302.354 339.422 302.32 339.333 302.252C339.255 302.175 339.216 302.08 339.216 301.978V298.587L335.123 292.096C335.108 292.075 335.094 292.054 335.084 292.028C335.069 291.994 335.064 291.968 335.064 291.942C335.064 291.852 335.103 291.78 335.182 291.72C335.26 291.651 335.343 291.617 335.436 291.617H337.316C337.458 291.617 337.576 291.651 337.669 291.72C337.772 291.788 337.835 291.857 337.865 291.925L340.626 296.138L343.387 291.925C343.412 291.857 343.47 291.788 343.563 291.72C343.666 291.651 343.798 291.617 343.955 291.617H345.816C345.918 291.617 346.002 291.651 346.07 291.72C346.148 291.78 346.188 291.852 346.188 291.942C346.188 291.968 346.178 291.994 346.168 292.028C346.168 292.054 346.153 292.075 346.129 292.096L342.036 298.587V301.978C342.036 302.08 341.987 302.175 341.899 302.252C341.821 302.32 341.713 302.354 341.586 302.354H339.666Z" fill="#4F3215"/>
<path d="M355.258 302.354C355.141 302.354 355.033 302.32 354.945 302.252C354.867 302.175 354.827 302.08 354.827 301.978V291.994C354.827 291.882 354.867 291.788 354.945 291.72C355.033 291.651 355.141 291.617 355.258 291.617H363.229C363.346 291.617 363.444 291.651 363.522 291.72C363.611 291.788 363.659 291.882 363.659 291.994V293.227C363.659 293.342 363.611 293.432 363.522 293.501C363.444 293.569 363.346 293.603 363.229 293.603H357.53V296.001H362.837C362.964 296.001 363.072 296.044 363.15 296.121C363.229 296.189 363.268 296.275 363.268 296.378V297.525C363.268 297.628 363.229 297.722 363.15 297.799C363.072 297.868 362.964 297.902 362.837 297.902H357.53V300.368H363.366C363.493 300.368 363.601 300.402 363.679 300.471C363.757 300.539 363.797 300.633 363.797 300.745V301.978C363.797 302.08 363.757 302.175 363.679 302.252C363.601 302.32 363.493 302.354 363.366 302.354H355.258Z" fill="#4F3215"/>
<path d="M373.343 302.354C373.225 302.354 373.117 302.32 373.029 302.252C372.951 302.175 372.912 302.08 372.912 301.978V291.994C372.912 291.882 372.951 291.788 373.029 291.72C373.117 291.651 373.225 291.617 373.343 291.617H378.571C379.536 291.617 380.334 291.745 380.961 291.994C381.587 292.233 382.043 292.585 382.331 293.038C382.63 293.484 382.782 294.01 382.782 294.614C382.782 294.991 382.703 295.325 382.547 295.607C382.39 295.894 382.194 296.129 381.959 296.309C381.734 296.493 381.519 296.63 381.313 296.72C381.768 296.904 382.165 297.213 382.508 297.645C382.86 298.069 383.036 298.57 383.036 299.152C383.036 299.794 382.865 300.351 382.527 300.83C382.199 301.31 381.715 301.686 381.078 301.96C380.437 302.226 379.653 302.354 378.728 302.354H373.343ZM375.712 300.539H378.395C378.968 300.539 379.399 300.402 379.688 300.128C379.986 299.846 380.138 299.512 380.138 299.135C380.138 298.737 379.986 298.398 379.688 298.124C379.384 297.85 378.953 297.713 378.395 297.713H375.712V300.539ZM375.712 295.95H378.238C378.787 295.95 379.198 295.83 379.472 295.59C379.746 295.35 379.883 295.042 379.883 294.665C379.883 294.288 379.746 293.993 379.472 293.775C379.198 293.548 378.787 293.432 378.238 293.432H375.712V295.95Z" fill="#4F3215"/>
<path d="M392.549 302.354C392.432 302.354 392.324 302.32 392.236 302.252C392.158 302.175 392.119 302.08 392.119 301.978V291.994C392.119 291.882 392.158 291.788 392.236 291.72C392.324 291.651 392.432 291.617 392.549 291.617H397.778C398.743 291.617 399.541 291.745 400.167 291.994C400.794 292.233 401.249 292.585 401.538 293.038C401.837 293.484 401.989 294.01 401.989 294.614C401.989 294.991 401.91 295.325 401.754 295.607C401.597 295.894 401.401 296.129 401.166 296.309C400.941 296.493 400.725 296.63 400.52 296.72C400.975 296.904 401.372 297.213 401.714 297.645C402.067 298.069 402.243 298.57 402.243 299.152C402.243 299.794 402.072 300.351 401.734 300.83C401.406 301.31 400.921 301.686 400.285 301.96C399.643 302.226 398.86 302.354 397.935 302.354H392.549ZM394.919 300.539H397.602C398.175 300.539 398.606 300.402 398.894 300.128C399.193 299.846 399.345 299.512 399.345 299.135C399.345 298.737 399.193 298.398 398.894 298.124C398.591 297.85 398.16 297.713 397.602 297.713H394.919V300.539ZM394.919 295.95H397.445C397.994 295.95 398.405 295.83 398.679 295.59C398.953 295.35 399.09 295.042 399.09 294.665C399.09 294.288 398.953 293.993 398.679 293.775C398.405 293.548 397.994 293.432 397.445 293.432H394.919V295.95Z" fill="#4F3215"/>
</svg>
